<!-- Created with Inkscape (http://www.inkscape.org/) --><svg xmlns:dc="http://purl.org/dc/elements/1.1/" xmlns:cc="http://creativecommons.org/ns#" xmlns:rdf="http://www.w3.org/1999/02/22-rdf-syntax-ns#" xmlns:svg="http://www.w3.org/2000/svg" xmlns="http://www.w3.org/2000/svg" xmlns:sodipodi="http://sodipodi.sourceforge.net/DTD/sodipodi-0.dtd" xmlns:inkscape="http://www.inkscape.org/namespaces/inkscape" inkscape:version="0.48.3.1 r9886" version="1.1" id="svg3026" height="744.09448" width="1052.3622" sodipodi:docname="buzka-done.mzkdrn">
  <sodipodi:namedview id="base" pagecolor="#ffffff" bordercolor="#666666" borderopacity="1.0" inkscape:pageopacity="0.0" inkscape:pageshadow="2" inkscape:zoom="0.62" inkscape:cx="317.11982" inkscape:cy="405.71429" inkscape:document-units="px" inkscape:current-layer="svg3026" showgrid="false" inkscape:window-width="1366" inkscape:window-height="748" inkscape:window-x="0" inkscape:window-y="0" inkscape:window-maximized="1"/>
  <defs id="defs3028"/>
  <metadata id="metadata3031">
    <rdf:RDF>
      <cc:Work rdf:about="">
        <dc:format>image/svg+xml</dc:format>
        <dc:type rdf:resource="http://purl.org/dc/dcmitype/StillImage"/>
        <dc:title/>
      </cc:Work>
    </rdf:RDF>
  </metadata>
  <path style="stroke-linejoin:round;opacity:1;stroke-opacity:1;stroke:#000000;stroke-linecap:round;stroke-miterlimit:4;stroke-width:5px;fill:none" d="M585.71428 464.09448C585.71428 531.94661 516.63821 586.95162 431.42856 586.95162C346.21891 586.95162 277.14284 531.94661 277.14284 464.09448C277.14284 396.24236 346.21891 341.23734 431.42856 341.23734C516.63821 341.23734 585.71428 396.24236 585.71428 464.09448C585.71428 464.09448 585.71428 464.09448 585.71428 464.09448" id="path3036" color="#00000000"/>
  <path style="stroke-linejoin:round;opacity:1;stroke-opacity:1;stroke:#000000;stroke-linecap:round;stroke-miterlimit:4;stroke-width:5px;fill:none" d="M402.85714 418.38019C402.85714 429.42588 391.34446 438.38019 377.14285 438.38019C362.94125 438.38019 351.42857 429.42588 351.42857 418.38019C351.42857 407.33449 362.94125 398.38019 377.14285 398.38019C391.34446 398.38019 402.85714 407.33449 402.85714 418.38019C402.85714 418.38019 402.85714 418.38019 402.85714 418.38019" id="path3806" color="#00000000"/>
  <path style="stroke-linejoin:round;opacity:1;stroke-opacity:1;stroke:#000000;stroke-linecap:round;stroke-miterlimit:4;stroke-width:5px;fill:none" d="M508.57142 422.66592C508.57142 432.92264 498.97753 441.23735 487.14285 441.23735C475.30818 441.23735 465.71428 432.92264 465.71428 422.66592C465.71428 412.40921 475.30818 404.0945 487.14285 404.0945C498.97753 404.0945 508.57142 412.40921 508.57142 422.66592C508.57142 422.66592 508.57142 422.66592 508.57142 422.66592" id="path3808" color="#00000000"/>
  <path sodipodi:nodetypes="cc" inkscape:connector-curvature="0" id="path3810" d="M342.85714 498.3802C400.95238 536.11186 459.04762 560.20149 517.14286 492.66591" style="stroke-linejoin:miter;opacity:1;stroke-opacity:1;stroke:#000000;stroke-linecap:butt;stroke-dasharray:none;stroke-miterlimit:4;stroke-width:5px;fill:none" color="#00000000"/>
</svg>