<?xml version="1.0" encoding="UTF-8" standalone="no"?>
<!-- Created with Inkscape (http://www.inkscape.org/) -->

<svg
   xmlns:dc="http://purl.org/dc/elements/1.1/"
   xmlns:cc="http://creativecommons.org/ns#"
   xmlns:rdf="http://www.w3.org/1999/02/22-rdf-syntax-ns#"
   xmlns:svg="http://www.w3.org/2000/svg"
   xmlns="http://www.w3.org/2000/svg"
   xmlns:sodipodi="http://sodipodi.sourceforge.net/DTD/sodipodi-0.dtd"
   xmlns:inkscape="http://www.inkscape.org/namespaces/inkscape"
   width="1052.3622"
   height="744.09448"
   id="svg2"
   version="1.1"
   inkscape:version="0.48.3.1 r9886"
   sodipodi:docname="Nowy dokument 1">
  <sodipodi:namedview
     id="base"
     pagecolor="#ffffff"
     bordercolor="#666666"
     borderopacity="1.0"
     inkscape:pageopacity="0.0"
     inkscape:pageshadow="2"
     inkscape:zoom="0.35"
     inkscape:cx="375"
     inkscape:cy="520"
     inkscape:document-units="px"
     inkscape:current-layer="svg2"
     showgrid="false"
     inkscape:window-width="1366"
     inkscape:window-height="748"
     inkscape:window-x="0"
     inkscape:window-y="-3"
     inkscape:window-maximized="1" />
  <defs
     id="defs4" />
  <metadata
     id="metadata7">
    <rdf:RDF>
      <cc:Work
         rdf:about="">
        <dc:format>image/svg+xml</dc:format>
        <dc:type
           rdf:resource="http://purl.org/dc/dcmitype/StillImage" />
        <dc:title></dc:title>
      </cc:Work>
    </rdf:RDF>
  </metadata>
  <path
     color="#00000000"
     style="stroke-linejoin:miter;opacity:1;stroke-opacity:1;stroke:#000000;stroke-linecap:butt;stroke-width:5px;fill:none"
     d="M85.714286 198.3802C88.571429 194.57067 90.567291 189.92636 94.285714 186.95163C97.027085 184.75853 122.33452 185.26174 125.71429 186.95163C129.97346 189.08121 133.77568 192.15588 137.14286 195.52305C147.55039 205.93059 144.44344 275.53208 142.85714 289.80877C142.0277 297.27376 129.50311 328.89261 125.71429 335.52305C123.70958 339.03129 119.49141 340.8065 117.14286 344.09448C111.95218 351.36143 93.347877 387.84583 91.428571 395.52305C89.591724 402.87045 85.714286 408.13589 85.714286 415.52305C85.714286 418.3802 85.714286 426.95163 85.714286 424.09448C85.714286 412.3578 84.367416 424.4345 91.428571 412.66591C106.57714 387.4183 117.62162 389.80877 145.71429 389.80877C150.40786 389.80877 164.1278 387.58695 168.57143 389.80877C174.1765 392.6113 168.35277 395.52305 174.28571 395.52305"
     id="path2985"
     inkscape:connector-curvature="0" />
  <path
     color="#00000000"
     style="stroke-linejoin:miter;opacity:1;stroke-opacity:1;stroke:#000000;stroke-linecap:butt;stroke-width:5px;fill:none"
     d="M220.0 204.09448C210.98119 222.32082 202.69229 241.81434 197.14286 261.23734C195.55832 266.78323 195.50071 332.23876 197.14286 335.52305C203.29579 347.82893 226.02497 352.82126 237.14286 358.3802C240.21539 359.91646 247.15212 365.88251 251.42857 366.95163C259.01834 368.84907 288.0941 370.28609 294.28571 364.09448C303.01589 355.3643 326.09012 302.21532 328.57143 289.80877C330.72237 279.05405 332.0999 251.82274 328.57143 241.23734C324.51996 229.08293 319.31277 232.91904 308.57143 226.95163C293.10714 218.36035 278.1876 201.41146 260.0 198.3802C253.49016 197.29522 237.55269 196.33882 231.42857 198.3802C227.38796 199.72707 224.25918 204.09448 220.0 204.09448C214.87127 204.09448 210.79147 199.10551 205.71429 198.3802C200.439 197.62658 185.41634 218.97609 182.85714 224.09448C181.04401 227.72074 182.85714 236.81862 182.85714 241.23734"
     id="path2987"
     inkscape:connector-curvature="0" />
  <path
     color="#00000000"
     style="stroke-linejoin:miter;opacity:1;stroke-opacity:1;stroke:#000000;stroke-linecap:butt;stroke-width:5px;fill:none"
     d="M420.0 178.3802C424.18029 203.03481 413.95219 231.33181 420.0 255.52305C423.53525 269.66405 478.89857 276.62449 488.57143 266.95163C491.06792 264.45513 493.16993 254.89748 494.28571 252.66591C502.03599 237.16537 502.85714 233.08168 502.85714 215.52305C502.85714 212.29447 504.95597 197.62188 502.85714 195.52305C478.77184 171.43775 508.95212 205.5419 485.71429 186.95163C483.03289 184.80651 482.4281 180.8083 480.0 178.3802C474.04313 172.42332 461.83288 165.01092 454.28571 161.23734C446.00868 157.09882 437.45856 158.3802 428.57143 158.3802C423.7722 158.3802 410.13754 156.6109 405.71429 158.3802C391.6606 164.00167 388.57143 189.29302 388.57143 201.23734"
     id="path2989"
     inkscape:connector-curvature="0" />
  <path
     color="#00000000"
     style="stroke-linejoin:miter;opacity:1;stroke-opacity:1;stroke:#000000;stroke-linecap:butt;stroke-width:5px;fill:none"
     d="M422.85714 401.23734C440.52176 369.2552 469.54287 344.70399 491.42857 315.52305C517.36493 280.94124 537.36061 252.48445 571.42857 224.09448C576.11335 220.1905 581.4022 216.978 585.71429 212.66591C589.87994 208.50025 586.11462 201.23734 591.42857 201.23734"
     id="path2991"
     inkscape:connector-curvature="0" />
  <path
     color="#00000000"
     style="stroke-linejoin:miter;opacity:1;stroke-opacity:1;stroke:#000000;stroke-linecap:butt;stroke-width:5px;fill:none"
     d="M554.28571 309.80877C547.09817 312.52425 538.63373 353.41135 542.85714 355.52305C546.58441 357.38669 555.48419 355.52305 560.0 355.52305C568.72854 355.52305 580.14853 357.62878 588.57143 355.52305C598.04016 353.15587 597.82211 342.23643 602.85714 335.52305C614.99206 319.34316 622.85714 307.63656 622.85714 286.95163C622.85714 284.66237 624.68138 271.63301 622.85714 269.80877C620.82512 267.77675 585.98021 268.24723 582.85714 269.80877C573.93996 274.26736 565.69708 287.92695 560.0 295.52305C556.92276 299.62604 557.91227 306.18221 554.28571 309.80877C548.70813 315.38635 537.14286 311.92739 537.14286 321.23734"
     id="path2993"
     inkscape:connector-curvature="0" />
  <path
     color="#00000000"
     style="stroke-linejoin:miter;opacity:1;stroke-opacity:1;stroke:#000000;stroke-linecap:butt;stroke-width:5px;fill:none"
     d="M328.57143 518.3802C311.09025 516.31757 291.05463 527.6995 282.85714 544.09448C275.59695 558.61486 264.39641 606.6775 280.0 618.3802C290.25505 626.07149 315.65499 621.23734 328.57143 621.23734"
     id="path2995"
     inkscape:connector-curvature="0" />
  <path
     color="#00000000"
     style="stroke-linejoin:miter;opacity:1;stroke-opacity:1;stroke:#000000;stroke-linecap:butt;stroke-width:5px;fill:none"
     d="M382.85714 549.80877C385.77351 555.43617 379.22248 600.45982 382.85714 604.09448C384.75192 605.98926 400.56501 604.09448 402.85714 604.09448C407.1312 604.09448 423.26005 606.54872 425.71429 604.09448C438.8404 590.96837 446.29253 545.82922 440.0 526.95163C434.40241 510.15884 379.41144 496.11162 371.42857 504.09448C368.79463 506.72842 371.42857 522.75615 371.42857 526.95163"
     id="path2997"
     inkscape:connector-curvature="0" />
  <path
     color="#00000000"
     style="stroke-linejoin:miter;opacity:1;stroke-opacity:1;stroke:#000000;stroke-linecap:butt;stroke-width:5px;fill:none"
     d="M482.85714 535.52305C488.48708 548.8695 476.38835 571.15689 482.85714 584.09448C487.11554 592.61127 528.2689 595.82558 531.42857 592.66591C532.18487 591.90961 531.42857 585.27095 531.42857 584.09448C531.42857 570.90223 535.55895 550.77134 531.42857 538.3802C525.27885 519.93104 492.81061 517.60681 482.85714 535.52305C480.54456 539.68571 483.64 545.11165 482.85714 549.80877C482.19973 553.75326 477.14286 553.36636 477.14286 558.3802"
     id="path2999"
     inkscape:connector-curvature="0" />
  <path
     color="#00000000"
     style="stroke-linejoin:miter;opacity:1;stroke-opacity:1;stroke:#000000;stroke-linecap:butt;stroke-width:5px;fill:none"
     d="M602.85714 432.66591C602.85714 472.66591 602.85714 512.66591 602.85714 552.66591C602.85714 555.53863 600.43876 575.96181 602.85714 578.3802C607.49399 583.01705 638.49646 578.3802 645.71429 578.3802"
     id="path3001"
     inkscape:connector-curvature="0" />
  <path
     color="#00000000"
     style="stroke-linejoin:miter;opacity:1;stroke-opacity:1;stroke:#000000;stroke-linecap:butt;stroke-width:5px;fill:none"
     d="M720.0 518.3802C728.8282 519.32306 762.33683 527.73209 768.57143 518.3802C771.18653 514.45754 784.84799 468.56762 780.0 466.95163C775.00345 465.28611 730.91249 465.21889 725.71429 466.95163C723.09649 467.82422 720.70008 474.12288 720.0 475.52305C706.04789 503.42728 721.96822 496.72977 720.0 518.3802C719.49723 523.91068 713.61612 527.56163 711.42857 532.66591C709.91885 536.1886 709.14153 559.5204 711.42857 564.09448C717.62925 576.49585 750.62228 584.49763 762.85714 578.3802C768.66657 575.47548 767.43486 561.23734 774.28571 561.23734"
     id="path3003"
     inkscape:connector-curvature="0" />
  <path
     color="#00000000"
     style="stroke-linejoin:miter;opacity:1;stroke-opacity:1;stroke:#000000;stroke-linecap:butt;stroke-width:5px;fill:none"
     d="M851.42857 484.09448C855.2381 486.95163 860.21571 488.70377 862.85714 492.66591C866.31349 497.85043 865.71429 555.42095 865.71429 566.95163C865.71429 575.52305 865.71429 584.09448 865.71429 592.66591C865.71429 596.47543 865.71429 607.90401 865.71429 604.09448C865.71429 591.27187 863.90174 576.78229 865.71429 564.09448C867.20867 553.63377 892.11276 490.89525 900.0 486.95163C907.94901 482.97712 946.04329 486.95163 957.14286 486.95163"
     id="path3005"
     inkscape:connector-curvature="0" />
  <path
     color="#00000000"
     style="stroke-linejoin:miter;opacity:1;stroke-opacity:1;stroke:#000000;stroke-linecap:butt;stroke-width:5px;fill:none"
     d="M282.85714 701.23734C337.38556 684.95152 395.52383 689.56115 451.42857 678.3802C475.28318 673.60927 466.02291 671.68781 488.57143 669.80877C515.18924 667.59062 542.07131 667.03894 568.57143 664.09448C588.87669 661.83834 608.35961 652.33525 628.57143 649.80877C636.13164 648.86374 643.8861 650.88626 651.42857 649.80877C676.91651 646.16763 702.68691 641.25625 728.57143 638.3802C752.61808 635.70835 778.64227 638.3802 802.85714 638.3802C857.14286 638.3802 911.42857 638.3802 965.71429 638.3802"
     id="path3007"
     inkscape:connector-curvature="0" />
</svg>
