<!-- Created with Inkscape (http://www.inkscape.org/) --><svg xmlns:dc="http://purl.org/dc/elements/1.1/" xmlns:cc="http://creativecommons.org/ns#" xmlns:rdf="http://www.w3.org/1999/02/22-rdf-syntax-ns#" xmlns:svg="http://www.w3.org/2000/svg" xmlns="http://www.w3.org/2000/svg" xmlns:xlink="http://www.w3.org/1999/xlink" xmlns:sodipodi="http://sodipodi.sourceforge.net/DTD/sodipodi-0.dtd" xmlns:inkscape="http://www.inkscape.org/namespaces/inkscape" version="1.1" width="1052.3622" height="744.09448" id="svg3772" inkscape:version="0.48.3.1 r9886" sodipodi:docname="derpy.svg" inkscape:export-filename="/home/dos/.config/inkscape/extensions/lol2.png" inkscape:export-xdpi="225" inkscape:export-ydpi="225">
  <sodipodi:namedview pagecolor="#ffffff" bordercolor="#666666" borderopacity="1" objecttolerance="10" gridtolerance="10" guidetolerance="10" inkscape:pageopacity="0" inkscape:pageshadow="2" inkscape:window-width="1366" inkscape:window-height="748" id="namedview83" showgrid="false" inkscape:zoom="0.22273864" inkscape:cx="288.45235" inkscape:cy="543.75829" inkscape:window-x="0" inkscape:window-y="-3" inkscape:window-maximized="1" inkscape:current-layer="svg3772"/>
  <defs id="defs3774">
  </defs>
  <metadata id="metadata3777">
    <rdf:RDF>
      <cc:Work rdf:about="">
        <dc:format>image/svg+xml</dc:format>
        <dc:type rdf:resource="http://purl.org/dc/dcmitype/StillImage"/>
        <dc:title/>
      </cc:Work>
    </rdf:RDF>
  </metadata>
  <path style="stroke-linejoin:miter;opacity:1;stroke-opacity:1;stroke:#000000;stroke-linecap:butt;stroke-dasharray:none;stroke-miterlimit:4;stroke-width:5px;fill:none" d="M397.65822 256.60699C463.62922 295.4337 468.2464 416.873 461.66993 473.94908C450.67757 451.11441 445.55869 433.515 432.39038 414.37674C435.09548 499.89108 469.08016 518.06926 480.07375 520.86697C492.88036 523.83903 507.44359 526.77669 531.8526 509.19896C530.88242 525.76884 520.29797 544.68669 505.73763 555.8848C531.92607 554.51082 551.1994 533.97737 577.9671 502.10165C572.85456 546.95401 528.21276 619.49679 457.96733 613.29011C466.24631 622.49219 477.79314 627.65391 495.42673 628.1966C462.66004 658.11012 433.64365 647.7303 413.78779 627.80831" id="path3844-stroke" color="#00000000" inkscape:connector-curvature="0" sodipodi:nodetypes="cccccccccc"/>
  <path sodipodi:nodetypes="cccc" color="#00000000" inkscape:connector-curvature="0" style="opacity:1;stroke:#000000;stroke-width:5px;display:inline;fill:none" id="path3841" d="M384.49881 472.32794C384.49881 472.32794 392.02391 448.39433 392.02391 448.39433C392.02391 448.39433 385.72673 450.27244 385.72673 450.27244C385.72673 450.27244 349.02139 470.02235 349.02139 470.02235"/>
  <path sodipodi:nodetypes="cssc" color="#00000000" inkscape:connector-curvature="0" style="stroke-linejoin:miter;opacity:1;stroke-opacity:1;stroke:#000000;stroke-linecap:butt;stroke-dasharray:none;stroke-miterlimit:4;stroke-width:5px;display:inline;fill:none" id="path3839" d="M384.00717 472.94721C391.59316 472.45678 397.50522 475.00851 400.1995 481.3489C422.11601 532.92459 419.2621 606.5009 411.57826 655.86936C408.15725 677.84931 385.42362 684.64858 371.82036 684.15136"/>
  <path style="stroke-linejoin:miter;opacity:1;stroke-opacity:1;stroke:#000000;stroke-linecap:butt;stroke-dasharray:none;stroke-miterlimit:4;stroke-width:5px;display:inline;fill:none" d="M239.50923 349.78637C231.37023 350.7935 210.79951 364.10689 200.68422 393.73873C194.18708 412.77151 196.73341 440.37639 207.87114 449.35927C210.11054 451.15305 213.3655 449.74528 213.80817 440.60997" id="path3834-stroke" color="#00000000" inkscape:connector-curvature="0" sodipodi:nodetypes="cscc"/>
  <path style="stroke-linejoin:miter;opacity:1;stroke-opacity:1;stroke:#000000;stroke-linecap:butt;stroke-dasharray:none;stroke-miterlimit:4;stroke-width:5px;display:inline;fill:none" d="M244.79375 338.90165C236.29199 355.11397 227.28866 368.8502 218.33905 384.98943C196.75571 423.91166 217.86998 459.57441 236.61884 471.38876M343.87586 472.48242C354.65493 466.60725 393.59841 455.37829 402.93365 428.50157C411.68126 403.31665 413.06004 357.34147 397.82211 322.58712" id="path3831-stroke" color="#00000000" inkscape:connector-curvature="0" sodipodi:nodetypes="csccsc"/>
  <path color="#00000000" inkscape:connector-curvature="0" style="opacity:1;stroke:#000000;stroke-width:5px;display:inline;fill:none" id="path3824" d="M233.82144 462.31438C224.61179 540.09442 206.77663 617.57596 180.35077 694.20473C177.75263 702.73684 181.05671 708.75493 186.06989 711.2114C194.14354 714.59951 212.76961 716.70373 226.64046 716.63149C242.96038 716.5177 258.23254 712.96054 273.20634 704.20286C283.37165 713.97221 299.05546 717.80796 315.67483 717.77527C335.48879 717.75827 348.87342 715.62498 363.52095 708.23526C368.75941 705.47564 372.61287 702.13324 372.35907 695.53045C371.99556 652.4191 369.37948 608.8774 364.61034 566.05539C359.95454 524.2508 351.94628 482.63742 341.17707 442.15241C340.67274 439.75507 338.57777 435.25779 337.14465 435.52381C335.65541 435.80025 336.03341 440.80751 336.67514 443.42288C347.24721 486.509 352.94151 522.91912 358.50095 566.89665C363.05343 607.67553 365.28634 648.37629 365.84095 689.23328C366.11798 698.46115 362.61119 702.26925 357.11331 704.36859C326.45658 713.83359 310.39017 712.25774 287.84449 706.1362C279.21706 703.25764 280.12049 699.87936 280.99494 694.42568C288.97709 651.74504 294.21488 608.77419 296.62275 565.83919C298.08124 539.83292 298.44187 513.88926 298.58833 487.88971C298.58833 487.88971 297.63547 488.02781 297.63547 488.02781C289.29008 493.97321 282.10205 494.39655 273.04063 489.49162C272.34833 489.11688 270.40531 488.58738 269.8368 489.27067C269.04237 490.22552 270.58007 491.49087 271.38347 492.14306C274.25597 494.44908 277.98653 496.26158 281.71304 497.33546C283.62347 531.12288 283.66314 565.02078 281.43685 598.86343C280.3204 628.63688 276.30629 658.07889 272.04633 688.01804C270.45728 697.75397 267.16351 702.56305 258.12629 705.47331C236.16636 711.61162 214.85931 711.72604 193.93939 706.90955C187.74336 705.43658 185.17985 701.93072 186.20603 697.51902C203.26939 635.15659 224.56247 573.87979 231.83286 509.92979C231.83286 509.92979 235.97573 463.25343 235.97573 463.25343C235.68079 462.38819 234.59556 461.84645 233.82144 462.31438C233.82144 462.31438 233.82144 462.31438 233.82144 462.31438"/>
  <path color="#00000000" inkscape:connector-curvature="0" style="opacity:1;stroke:#000000;stroke-width:5px;display:inline;fill:none" id="path3826" d="M287.40259 496.78307C289.68495 540.53901 289.13817 583.83862 284.86162 627.3664C290.90487 584.68121 292.25139 539.29653 291.9321 495.84402C290.32324 496.25608 288.86897 496.51351 287.40259 496.78307C287.40259 496.78307 287.40259 496.78307 287.40259 496.78307"/>
  <path style="stroke-linejoin:miter;opacity:1;stroke-opacity:1;stroke:#000000;stroke-linecap:butt;stroke-dasharray:none;stroke-miterlimit:4;stroke-width:5px;display:inline;fill:none" d="M368.63951 146.57104C385.44431 157.69629 395.68547 220.7575 396.76227 256.87467C399.63129 290.9367 397.8764 324.32802 397.76212 358.39003C397.4687 388.06074 394.20491 409.05095 397.25017 435.06478C359.08984 403.97071 368.59992 366.04927 368.06196 329.18259C361.17865 338.72923 355.44576 380.61072 357.85912 406.86268C348.70585 396.66883 346.24701 377.62846 347.39122 357.02292C347.39122 357.02292 352.27433 297.87012 352.27433 297.87012" id="path4499-stroke" color="#00000000" inkscape:connector-curvature="0" sodipodi:nodetypes="cccccccc"/>
  <path style="stroke-linejoin:miter;opacity:1;stroke-opacity:1;stroke:#000000;stroke-linecap:butt;stroke-dasharray:none;stroke-miterlimit:4;stroke-width:5px;fill:none" d="M370.73028 169.18858C377.26498 188.38374 379.43585 193.5129 379.57613 230.2362C379.73648 272.2136 348.57447 315.50335 310.05046 334.36849C289.74447 344.31228 256.0021 344.26137 233.20593 337.01194C218.29689 332.27071 207.20355 323.62755 197.09075 315.15127C181.50321 302.08621 174.83586 287.25301 166.15573 264.84281C154.92626 235.85074 156.61415 217.94629 153.5005 195.16088" id="path4486-stroke" color="#00000000" inkscape:connector-curvature="0" sodipodi:nodetypes="csssssc"/>
  <path color="#00000000" inkscape:connector-curvature="0" style="opacity:1;stroke:#000000;stroke-width:5px;fill:none" id="path4488" d="M236.88717 288.6452C243.79537 283.32989 253.68874 278.11165 265.88727 283.86707C254.81395 283.48854 245.99335 284.46786 236.88717 288.6452C236.88717 288.6452 236.88717 288.6452 236.88717 288.6452"/>
  <path color="#00000000" inkscape:connector-curvature="0" style="opacity:1;stroke:#000000;stroke-width:5px;display:inline;fill:none" id="path4490" d="M230.61762 306.74954C228.60045 315.5163 234.20114 314.46395 237.92288 314.37243C234.46428 312.82654 231.56238 311.55924 230.61762 306.74954C230.61762 306.74954 230.61762 306.74954 230.61762 306.74954"/>
  <path color="#00000000" inkscape:connector-curvature="0" style="opacity:1;stroke:#000000;stroke-width:5px;display:inline;fill:none" id="path4492" d="M260.72248 308.19954C263.57639 306.20169 264.57656 303.51202 264.38202 298.67094C269.24964 305.57785 264.06299 307.8087 260.72248 308.19954C260.72248 308.19954 260.72248 308.19954 260.72248 308.19954"/>
  <path color="#00000000" inkscape:connector-curvature="0" style="opacity:1;stroke:#000000;stroke-width:5px;display:inline;fill:none" id="path4494" d="M253.5706 333.27482C266.36438 319.13673 280.36432 314.63748 296.53592 321.86949C273.70635 318.17575 262.97453 325.19322 253.5706 333.27482C253.5706 333.27482 253.5706 333.27482 253.5706 333.27482"/>
  <path color="#00000000" inkscape:connector-curvature="0" style="opacity:1;stroke:#000000;stroke-width:5px;display:inline;fill:none" id="path4407" d="M202.55656 312.06623C215.8536 312.13653 220.23049 305.2712 220.23282 288.6452C219.99258 274.38436 212.54033 242.4688 200.32037 220.16432C190.60005 202.42227 176.55098 190.87399 166.09929 190.54197C160.29856 190.67666 154.25525 193.79599 153.95243 207.41808C156.67687 230.12308 160.57523 254.16259 172.98031 278.63972C178.20441 288.94768 187.41356 303.16856 196.22989 310.57792C197.39699 311.47157 200.71912 312.00115 202.55656 312.06623C202.55656 312.06623 202.55656 312.06623 202.55656 312.06623"/>
  <path color="#00000000" inkscape:connector-curvature="0" style="opacity:1;stroke:#000000;stroke-width:5px;display:inline;fill:none" id="path4369-2" mask="url(#mask4478)" d="M200.427640124 221.495361357C201.351999449 236.595397987 197.490403472 251.02672807 190.297976375 259.351346918C183.105549279 267.675965767 173.675450994 268.628629532 165.561119983 261.850367154C157.446796047 255.0720977 151.881513369 241.593105882 150.962390365 226.49254562C150.03803104 211.39250899 153.899627018 196.961171831 161.092054114 188.636552982C168.284474134 180.31194121 177.714579495 179.359270368 185.828903431 186.137539822C193.943234442 192.9158022 199.50851712 206.394794019 200.427640124 221.495361357C200.427640124 221.495361357 200.427640124 221.495361357 200.427640124 221.495361357"/>
  <path color="#00000000" inkscape:connector-curvature="0" style="opacity:1;stroke:#000000;stroke-width:5px;display:inline;fill:none" id="path4417" mask="url(#mask4468)" d="M181.779479189 241.094692998C181.779479189 241.094692998 195.372141639 254.374881506 195.372141639 254.374881506C195.372141639 254.374881506 200.840453305 241.094692998 200.840453305 241.094692998C200.840453305 241.094692998 183.888683601 235.392027644 183.888683601 235.392027644C183.888683601 235.392027644 181.779479189 241.094692998 181.779479189 241.094692998"/>
  <path color="#00000000" inkscape:connector-curvature="0" style="opacity:1;stroke:#000000;stroke-width:5px;display:inline;fill:none" id="path4419" mask="url(#mask4464)" d="M184.669871993 236.407583876C184.669871993 236.407583876 199.668670717 241.719655033 199.668670717 241.719655033C199.668670717 241.719655033 201.77787513 230.470550683 201.77787513 230.470550683C201.77787513 230.470550683 184.982345935 230.392437504 184.982345935 230.392437504C184.982345935 230.392437504 184.669871993 236.407583876 184.669871993 236.407583876"/>
  <path color="#00000000" inkscape:connector-curvature="0" style="opacity:1;stroke:#000000;stroke-width:5px;display:inline;fill:none" id="path4415" mask="url(#mask4474)" d="M190.071703606 206.013915322C191.474924523 220.243031409 188.655880137 233.780287918 182.676850231 241.524474691C176.697820325 249.268661464 168.46756848 250.042752518 161.087461718 243.555042293C153.707354957 237.067332067 148.299098236 224.303890644 146.900667845 210.074321686C145.497446927 195.845198523 148.316491314 182.30794909 154.29552122 174.563762317C160.274544049 166.819568467 168.504802971 166.04548449 175.884909733 172.533194715C183.265016494 179.020897864 188.673273215 191.784339287 190.071703606 206.013915322C190.071703606 206.013915322 190.071703606 206.013915322 190.071703606 206.013915322"/>
  <path color="#00000000" inkscape:connector-curvature="0" style="opacity:1;stroke:#000000;stroke-width:5px;display:inline;fill:none" id="path4411" d="M191.88486 215.58493C193.44073 225.23469 190.38872 233.73978 185.06744 234.58316C179.74617 235.42655 174.17001 228.28895 172.61171 218.63958C171.60335 212.39557 172.50876 206.33407 174.9868 202.73898C177.46484 199.1439 181.1389 198.56159 184.62464 201.21146C188.11039 203.86133 190.87807 209.34068 191.88486 215.58493C191.88486 215.58493 191.88486 215.58493 191.88486 215.58493"/>
  <path color="#00000000" inkscape:connector-curvature="0" style="opacity:1;stroke:#000000;stroke-width:5px;display:inline;fill:none" id="path4413" d="M174.396 234.10657C174.76974 236.24527 174.3476 238.35605 173.28873 239.64285C172.22989 240.92965 170.69545 241.1967 169.26413 240.34329C167.83281 239.48987 166.72235 237.64583 166.35156 235.50662C165.97782 233.36792 166.40006 231.25715 167.45883 229.97034C168.51767 228.68354 170.05211 228.41649 171.48343 229.2699C172.91475 230.12332 174.02521 231.96737 174.396 234.10657C174.396 234.10657 174.396 234.10657 174.396 234.10657"/>
  <path color="#00000000" inkscape:connector-curvature="0" style="opacity:1;stroke:#000000;stroke-width:5px;display:inline;fill:none" id="path4409" d="M219.58896 280.70092C219.2422 263.26573 210.26074 230.39466 196.09117 210.51235C186.74614 197.39969 176.97519 187.85677 167.25871 187.22557C163.52222 186.98284 159.1159 190.71411 157.95327 193.91098C166.46382 186.44463 180.43355 194.07124 191.0099 206.55691C205.00453 223.07797 215.47622 252.40968 219.58896 280.70092C219.58896 280.70092 219.58896 280.70092 219.58896 280.70092"/>
  <path color="#00000000" inkscape:connector-curvature="0" style="opacity:1;stroke:#000000;stroke-width:5px;display:inline;fill:none" id="path4482" d="M157.46503 229.72842C157.46503 229.72842 157.89468 232.11105 157.89468 232.11105C153.99235 234.04839 145.97824 238.30741 145.74722 237.40359C145.34809 235.84217 153.20152 231.69229 157.46503 229.72842C157.46503 229.72842 157.46503 229.72842 157.46503 229.72842"/>
  <path d="M155.8865 214.75762C155.8865 214.75762 155.37566 217.12419 155.37566 217.12419C151.02952 217.42805 141.99708 218.31132 142.12795 217.38765C142.35407 215.79197 151.19632 214.94838 155.8865 214.75762C155.8865 214.75762 155.8865 214.75762 155.8865 214.75762" id="path4482-1" style="opacity:1;stroke:#000000;stroke-width:5px;display:inline;fill:none" inkscape:connector-curvature="0" color="#00000000"/>
  <path color="#00000000" inkscape:connector-curvature="0" style="opacity:1;stroke:#000000;stroke-width:5px;display:inline;fill:none" id="path4314" d="M309.00076 57.859598C284.4202 43.193695 257.4604 34.652893 230.06524 34.328093C161.45847 35.789444 116.50115 73.929176 95.179716 109.95404C79.34674 136.70559 69.84299 168.87396 70.923719 207.99728C78.016942 191.92582 85.646998 177.72208 98.321911 166.12666C93.674498 180.44336 92.68323 197.42384 91.638079 213.52111C90.377987 242.31868 94.072456 271.77911 97.71429 299.9138C113.06175 270.01663 131.12843 237.02894 153.18897 207.13163C165.53616 190.39822 179.06121 173.81565 198.39835 161.01917C213.32954 151.13835 233.21916 136.6828 253.98064 128.19412C247.093 148.09038 226.44112 172.2223 216.22804 183.27813C242.13992 176.39991 288.25961 152.53383 312.14933 97.299757C312.14933 97.299757 309.82932 85.920657 309.82932 85.920657C299.57015 115.1392 273.87709 150.62868 237.74335 167.97713C250.47592 151.10275 261.64604 134.29315 263.01962 118.87504C246.34843 122.29893 231.64968 131.21256 217.70261 139.96133C201.82183 149.92307 183.69696 161.25704 164.42815 182.73793C139.18058 210.88392 119.47531 244.61979 101.47049 278.26039C98.281901 238.88699 90.567698 181.53127 117.82103 140.938C101.8867 152.13427 90.130743 164.63716 78.712317 179.05241C96.146472 69.036739 177.03839 43.829504 228.18713 40.956696C253.90174 40.85262 281.13185 48.904625 308.83502 64.267257C308.83502 64.267257 309.00076 57.859598 309.00076 57.859598"/>
  <path color="#00000000" inkscape:connector-curvature="0" style="opacity:1;stroke:#000000;stroke-width:5px;display:inline;fill:none" id="path4307" d="M312.55026 99.856016C309.12607 88.86589 307.32339 76.1749 307.50931 63.825354C307.93214 47.12867 311.70484 27.563862 325.13034 27.478552C336.79175 27.400772 354.94983 45.254223 367.33179 68.605443C376.79247 86.447388 382.43978 102.8583 382.30197 124.03508C382.08403 140.89051 378.46363 160.74571 367.05619 171.20858C371.79951 155.99186 375.64616 140.78589 375.78385 124.58746C375.69605 108.02552 372.76992 90.621324 365.55584 76.952013C351.08949 49.541051 335.21145 33.066075 325.29604 33.112863C309.32685 33.349445 312.56275 76.655764 312.55026 99.856016C312.55026 99.856016 312.55026 99.856016 312.55026 99.856016"/>
  <path color="#00000000" inkscape:connector-curvature="0" style="opacity:1;stroke:#000000;stroke-width:5px;display:inline;fill:none" id="path4309" d="M355.98091 136.73989C357.9488 108.86753 354.17186 82.227798 340.01707 57.804369C357.23773 79.230308 363.88629 103.68042 355.98091 136.73989C355.98091 136.73989 355.98091 136.73989 355.98091 136.73989"/>
  <path color="#00000000" inkscape:connector-curvature="0" style="opacity:1;stroke:#000000;stroke-miterlimit:4;stroke-dasharray:none;stroke-width:5px;display:inline;fill:none" id="path4383" d="M306.1836 151.54374C284.17216 151.48414 270.79432 179.1252 270.49967 210.86965C270.46217 240.03837 287.02838 284.21135 320.54555 284.22612C336.87262 284.12002 346.42847 271.83278 351.09733 254.8563C353.64113 245.60685 355.05248 235.94723 355.01424 227.66212C354.38806 189.20383 336.86708 151.64948 306.1836 151.54374C306.1836 151.54374 306.1836 151.54374 306.1836 151.54374"/>
  <path color="#00000000" inkscape:connector-curvature="0" style="opacity:1;stroke:#000000;stroke-width:5px;display:inline;fill:none" id="path4321" d="M318.55698 152.0409C321.84454 145.93936 328.57204 131.16383 330.87513 132.09987C333.46553 133.1527 326.01438 147.68473 323.14175 154.02946C323.14175 154.02946 318.55698 152.0409 318.55698 152.0409"/>
  <path color="#00000000" inkscape:connector-curvature="0" style="opacity:1;stroke:#000000;stroke-width:5px;display:inline;fill:none" id="path4321-1" d="M332.41528 160.78071C337.82662 156.52002 355.00414 142.27469 357.02444 145.22502C359.10848 148.26849 341.21654 160.23892 335.81082 164.44741C335.81082 164.44741 332.41528 160.78071 332.41528 160.78071"/>
  <path color="#00000000" inkscape:connector-curvature="0" style="opacity:1;stroke:#000000;stroke-width:5px;display:inline;fill:none" id="path4321-1-7" d="M342.96714 175.73352C349.55549 174.10256 367.21739 169.48388 368.01098 171.9451C368.84546 174.53318 350.31256 178.43863 344.68287 180.07613C344.68287 180.07613 342.96714 175.73352 342.96714 175.73352"/>
  <path color="#00000000" inkscape:connector-curvature="0" style="opacity:1;stroke:#000000;stroke-width:5px;display:inline;fill:none" id="path4369" mask="url(#mask4402)" d="M330.779231062 202.051046058C326.647596574 218.424648042 316.63050666 232.062986782 304.502620209 237.826860487C292.374726682 243.590741268 279.979299587 240.604120444 271.987194224 229.992432082C263.995088861 219.380743721 261.620990271 202.756810193 265.759509813 186.384871095C269.891151376 170.011269111 279.908234215 156.372930372 292.036127742 150.609056667C304.164021269 144.845175886 316.559441287 147.831796709 324.551546651 158.443485071C332.543652014 169.055173432 334.917750604 185.67910696 330.779231062 202.051046058C330.779231062 202.051046058 330.779231062 202.051046058 330.779231062 202.051046058"/>
  <path color="#00000000" inkscape:connector-curvature="0" style="opacity:1;stroke:#000000;stroke-width:5px;display:inline;fill:none" id="path4367" mask="url(#mask4392)" d="M327.505567836 216.172534512C327.505567836 216.172534512 310.050276297 210.206800617 310.050276297 210.206800617C310.050276297 210.206800617 313.254098317 201.589641229 313.254098317 201.589641229C313.254098317 201.589641229 334.797032167 200.595348709 334.797032167 200.595348709C334.797032167 200.595348709 327.505567836 216.172534512 327.505567836 216.172534512"/>
  <path color="#00000000" inkscape:connector-curvature="0" style="opacity:1;stroke:#000000;stroke-miterlimit:4;stroke-dasharray:none;stroke-width:5px;display:inline;fill:none" id="path4365" mask="url(#mask4388)" d="M320.214117656 227.109723934C320.214117656 227.109723934 306.294071901 215.509686984 306.294071901 215.509686984C306.294071901 215.509686984 310.050276297 209.875376853 310.050276297 209.875376853C310.050276297 209.875376853 329.825569565 215.509686984 329.825569565 215.509686984C329.825569565 215.509686984 320.214117656 227.109723934 320.214117656 227.109723934"/>
  <path color="#00000000" inkscape:connector-curvature="0" style="opacity:1;stroke:#000000;stroke-width:5px;display:inline;fill:none" id="path4363" mask="url(#mask4398)" d="M317.325352358 189.02454317C316.855845383 202.751609253 311.539832832 215.262079743 303.37979015 221.843392751C295.219754544 228.424698683 285.455394975 228.076985714 277.764859267 220.931225563C270.07432356 213.785472489 265.625983617 200.927281953 266.095483516 187.20021587C266.56499049 173.473156863 271.881003041 160.962679297 280.041045723 154.381373364C288.201081329 147.800067432 297.965440899 148.147780402 305.655976606 155.293540552C313.346512314 162.439293627 317.794852256 175.297484163 317.325352358 189.02454317C317.325352358 189.02454317 317.325352358 189.02454317 317.325352358 189.02454317"/>
  <path color="#00000000" inkscape:connector-curvature="0" style="opacity:1;stroke:#000000;stroke-width:5px;display:inline;fill:none" id="path4359" d="M323.1828 177.45155C323.40856 185.14651 321.05777 192.33425 317.01706 196.30381C312.97635 200.27336 307.86053 200.42074 303.59911 196.69038C299.33767 192.96002 296.57902 185.91949 296.36361 178.22422C296.13786 170.52926 298.48865 163.34152 302.52935 159.37197C306.57006 155.40242 311.68588 155.25503 315.94731 158.98539C320.20874 162.71575 322.96739 169.75629 323.1828 177.45155C323.1828 177.45155 323.1828 177.45155 323.1828 177.45155"/>
  <path color="#00000000" inkscape:connector-curvature="0" style="opacity:1;stroke:#000000;stroke-width:5px;display:inline;fill:none" id="path4361" d="M293.00388 189.55985C293.87216 192.07979 293.63717 194.76614 292.38757 196.60543C291.13796 198.44473 289.06394 199.15703 286.94794 198.47363C284.83194 197.79021 282.99601 195.81512 282.13278 193.29344C281.26451 190.77349 281.4995 188.08715 282.7491 186.24785C283.9987 184.40856 286.07273 183.69626 288.18872 184.37966C290.30472 185.06307 292.14065 187.03817 293.00388 189.55985C293.00388 189.55985 293.00388 189.55985 293.00388 189.55985"/>
  <path color="#00000000" inkscape:connector-curvature="0" style="opacity:1;stroke:#000000;stroke-width:5px;display:inline;fill:none" id="path4319" d="M285.89734 263.26319C279.06748 253.32484 270.99177 233.18588 271.04165 211.64397C271.10735 183.23799 283.25365 153.9848 305.07718 152.36961C315.35975 151.60858 332.96634 158.75494 345.37519 182.00075C331.94453 143.87553 294.88648 141.26102 280.22888 164.91335C264.42656 190.41285 264.43598 236.38963 285.89734 263.26319C285.89734 263.26319 285.89734 263.26319 285.89734 263.26319"/>
  <path d="M201.88564 222.61103C201.73483 227.02023 201.5236 237.69475 200.25939 241.72827C198.99517 245.76179 197.20296 249.439 195.01781 252.48275C192.83265 255.52653 190.25628 257.93446 187.48287 259.52508C184.70946 261.11568 181.74116 261.88776 178.8017 261.78309C175.86224 261.67841 172.95393 260.69707 170.29594 258.91305C167.63794 257.12901 165.23236 254.54367 163.26049 251.35186C161.28863 248.16008 159.75201 244.36433 158.76647 240.25069C157.78091 236.13706 157.3472 231.70876 157.49802 227.29956" mask="none" id="path4363-5" style="opacity:1;stroke-opacity:1;stroke:#000000;stroke-miterlimit:4;stroke-dasharray:none;stroke-width:5px;display:inline;fill:none" inkscape:connector-curvature="0" sodipodi:nodetypes="csssssssc" color="#00000000"/>
  <path d="M333.00412 200.43374C332.79358 206.58949 331.76713 212.71377 330.00215 218.34502C328.23717 223.97627 325.73503 229.11007 322.68431 233.35949C319.63359 237.60894 316.03669 240.97068 312.16469 243.19137C308.29268 245.41204 304.14861 246.48994 300.04478 246.34381C295.94098 246.19767 291.88064 244.8276 288.16978 242.33691C284.45892 239.84619 281.10046 236.23676 278.34752 231.78064C275.59456 227.32455 273.44927 222.02526 272.07333 216.28216C270.69739 210.53905 270.09188 204.35666 270.30243 198.20091C270.51298 192.04517 271.53943 185.92089 273.30442 180.28964C275.0694 174.6584 277.57154 169.52459 280.62225 165.27517C283.67297 161.02572 287.26987 157.66398 291.14188 155.44329C295.01389 153.22261 299.15795 152.14471 303.26176 152.29085C307.36558 152.43699 314.69887 151.40965 318.40972 153.90037C322.12058 156.39109 323.80463 162.13147 326.55759 166.5876C329.31056 171.04369 329.85729 176.60941 331.23323 182.35251C332.60917 188.09561 333.21468 194.278 333.00412 200.43374C333.00412 200.43374 333.00412 200.43374 333.00412 200.43374" mask="none" id="path4363-5-0" style="opacity:1;stroke-opacity:1;stroke:#000000;stroke-miterlimit:4;stroke-dasharray:none;stroke-width:5px;display:inline;fill:none" inkscape:connector-curvature="0" sodipodi:nodetypes="sssssssssssssssss" color="#00000000"/>
  <path d="M322.26349 184.98551C323.31593 189.3784 322.73111 190.96337 322.57006 195.67189C322.40902 200.3804 321.6239 205.06486 320.27385 209.37219C318.92382 213.67952 317.00995 217.60636 314.67646 220.85674C312.34297 224.10713 309.59171 226.67852 306.63002 228.37713C303.66833 230.0757 300.49854 230.90019 297.35953 230.78842C294.22054 230.67663 291.11479 229.62867 288.27637 227.72354C285.43794 225.8184 282.86906 223.05755 280.76333 219.64907C278.65761 216.24061 277.01668 212.1872 275.96422 207.79431C274.91177 203.40141 274.44862 198.67252 274.60966 193.964C274.77071 189.25549 275.55584 184.57104 276.90588 180.2637C278.25591 175.95638 280.16979 172.02954 282.50328 168.77917C284.83676 165.52877 284.4441 162.4334 287.40579 160.7348C290.36749 159.03621 295.63322 151.39988 298.77221 151.51166C301.91123 151.62344 304.90049 155.02953 307.73892 156.93469" mask="none" id="path4363-5-0-0" style="opacity:1;stroke-opacity:1;stroke:#000000;stroke-miterlimit:4;stroke-dasharray:none;stroke-width:5px;display:inline;fill:none" inkscape:connector-curvature="0" sodipodi:nodetypes="csssssssssssssc" color="#00000000"/>
  <path d="M198.54236 218.22964C198.39462 222.54918 197.67435 226.84665 196.43584 230.79815C195.19734 234.74964 193.44157 238.35207 191.30085 241.33393C189.16014 244.3158 186.63616 246.67477 183.91915 248.23305C181.20213 249.79131 178.29419 250.54768 175.4145 250.44514C172.53482 250.3426 169.68565 249.38121 167.0817 247.63347C164.47776 245.88571 162.12111 243.35294 160.18934 240.22604" mask="none" id="path4363-5-0-1" style="opacity:1;stroke-opacity:1;stroke:#000000;stroke-miterlimit:4;stroke-dasharray:none;stroke-width:5px;display:inline;fill:none" inkscape:connector-curvature="0" sodipodi:nodetypes="csssssc" color="#00000000"/>
</svg>