<?xml version="1.0" encoding="UTF-8" standalone="no"?>
<!-- Created with Inkscape (http://www.inkscape.org/) -->

<svg
   xmlns:dc="http://purl.org/dc/elements/1.1/"
   xmlns:cc="http://creativecommons.org/ns#"
   xmlns:rdf="http://www.w3.org/1999/02/22-rdf-syntax-ns#"
   xmlns:svg="http://www.w3.org/2000/svg"
   xmlns="http://www.w3.org/2000/svg"
   xmlns:sodipodi="http://sodipodi.sourceforge.net/DTD/sodipodi-0.dtd"
   xmlns:inkscape="http://www.inkscape.org/namespaces/inkscape"
   width="1052.3622"
   height="744.09448"
   id="svg3172"
   version="1.1"
   inkscape:version="0.48.3.1 r9886"
   sodipodi:docname="kiciadzieciol.svg"
   inkscape:export-filename="/home/dos/kiciadzieciol.png"
   inkscape:export-xdpi="225"
   inkscape:export-ydpi="225">
  <sodipodi:namedview
     id="base"
     pagecolor="#ffffff"
     bordercolor="#666666"
     borderopacity="1.0"
     inkscape:pageopacity="0.0"
     inkscape:pageshadow="2"
     inkscape:zoom="0.76629012"
     inkscape:cx="652.83528"
     inkscape:cy="325.87558"
     inkscape:document-units="px"
     inkscape:current-layer="svg3172"
     showgrid="false"
     inkscape:window-width="1440"
     inkscape:window-height="832"
     inkscape:window-x="1366"
     inkscape:window-y="-3"
     inkscape:window-maximized="1"
     showguides="true"
     inkscape:guide-bbox="true" />
  <defs
     id="defs3174" />
  <metadata
     id="metadata3177">
    <rdf:RDF>
      <cc:Work
         rdf:about="">
        <dc:format>image/svg+xml</dc:format>
        <dc:type
           rdf:resource="http://purl.org/dc/dcmitype/StillImage" />
        <dc:title />
      </cc:Work>
    </rdf:RDF>
  </metadata>
  <path
     id="path5816"
     style="stroke-linejoin:miter;opacity:1;stroke-opacity:1;stroke:#000000;stroke-linecap:butt;stroke-dasharray:none;stroke-miterlimit:4;stroke-width:5px;fill:none"
     d="m 594.52026,653.38365 c 0.6802,8.94652 -14.99047,9.40383 -7.6305,38.85598 0.49831,1.994 18.25799,-0.7128 18.97968,1.6616 m -82.10959,-65.87821 c -9.72183,50.20903 -27.35402,53.50765 -53.78385,59.16218 M 360.14445,446.79903 c 0,0 38.39232,54.84615 38.39232,54.84615 0,0 -1.82822,-1.8282 -1.82822,-1.8282 0,0 0,0 0,0 m -47.65994,-48.03973 c 0,0 36.5641,84.09742 36.5641,84.09742 0,0 0,0 0,0 0,0 0,0 0,0 m -49.10832,-79.59022 c 0,0 20.11026,74.95642 20.11026,74.95642 M 294.22251,393.68135 c -1.04334,11.50976 -11.15552,11.42653 -14.62948,9.17335 m -1.56054,46.09 c 12.10925,3.83818 22.80265,6.06416 36.83149,-3.14443 M 451.5704,344.32883 c -2.61734,17.93428 -3.35462,22.04903 3.50715,37.50244 2.90783,16.06675 -2.26486,23.80218 -12.16118,32.82216 m -67.34749,13.27778 c -5.63296,-28.66268 -21.74655,-21.47823 -36.42868,-19.18987 0,0 0,0 0,0 0,0 0,0 0,0 m 271.92285,304.50199 c -14.39266,-18.1863 -0.68248,-54.77407 35.65799,-44.40845 54.87066,5.37976 71.11446,12.96348 83.1242,1.75469 5.25025,-4.90009 -97.70049,-137.30528 -19.67877,-93.37143 M 497.64481,565.58501 c 29.3981,62.91098 -27.28378,130.99102 -52.80084,139.59912 m 60.0189,-81.58944 c 79.79718,1.97193 90.57735,38.01968 124.32116,43.68314 m -18.04393,45.8472 c 26.00872,4.179 60.89008,-4.7182 64.86353,-3.4473 4.24191,1.3569 138.79897,22.4297 131.00951,-12.6305 -0.53208,-2.3948 -16.57716,-78.09321 -18.2017,-81.12971 60.83231,-20.28374 95.84237,-65.32815 108.59936,-129.39939 7.60755,-52.39556 -106.91072,-102.53408 -100.84078,-87.84204 10.78991,26.11651 82.60846,48.98922 73.90486,88.16198 -12.9952,58.48822 -87.58443,110.55239 -95.26668,97.46473 -60.99212,-103.90759 -204.57583,-44.29004 -299.00768,-169.22915 1.9247,-10.7119 10.87703,-19.66688 -1.86934,-34.04654 -12.26947,-12.62487 -16.18856,-25.14105 -21.53816,-37.49268 -28.97826,6.11081 -27.26397,33.49975 -40.40804,50.58788 -82.20518,-35.65846 -59.84441,-3.28527 -128.69127,-0.18428 -16.8548,32.04406 -6.26394,47.72061 -5.37606,61.62731 9.64664,25.82799 51.48632,36.75063 89.8678,49.27444 5.10534,1.66586 86.26405,24.00295 74.96822,80.03487 -1.06222,5.26913 -3.30869,40.77449 -27.54221,70.57977 -10.37777,12.76384 -63.72456,16.8397 -93.96684,26.87544 -3.39796,1.12756 -24.70536,-2.25483 -27.87407,-1.14543 -12.3832,4.33494 -18.7104,24.1307 -14.59921,30.7306 3.74669,6.0147 8.15088,5.4264 18.86309,3.3345 30.1082,-5.8795 78.46321,-9.9109 147.88821,-10.9155 M 435.5877,352.9551 c -4.9333,-9.89238 -1.89054,-18.21038 -16.87719,-29.89517 -3.61899,26.15388 -27.59871,23.67933 -31.72516,61.00884 M 435.5877,352.9551 c 0,0 0,0 0,0 m -10.16884,289.9331 c -49.93906,7.55315 -114.44224,20.5955 -122.72899,39.18677 m 28.43672,-481.14395 c 2.87718,-12.90713 23.59501,-36.82146 56.08697,-36.69419 28.94653,2.23868 42.55187,13.39553 49.69283,31.21295 0,0 -49.91881,2.74072 -49.91881,2.74072 0,0 -55.86099,2.74052 -55.86099,2.74052 M 215.4776,199.7827 c 2.87718,-12.90712 17.65292,-30.87936 50.14491,-30.7521 28.94651,2.23868 39.58084,13.39554 46.72178,31.21297 0,0 -46.94778,-0.23022 -46.94778,-0.23022 0,0 -49.91891,-0.23065 -49.91891,-0.23065 M 359.97086,655.78706 C 352.36051,614.84799 344.60467,546.2091 336.33584,507.6632 m -73.7402,160.34965 c 5.15211,17.46181 10.92431,31.77098 16.73478,49.74448 m -15.81367,-50.71585 c 7.6e-4,1.45211 -0.65253,-0.68178 -0.65208,0.77037 1.52923,20.49598 -1.58618,32.49968 0.45381,54.04768 m -1.03414,-54.73339 c -0.32883,1.25235 0.71721,0.14932 0.38836,1.40164 -5.95512,15.95506 -10.51585,32.36625 -17.14958,48.65165 m 16.46469,-36.56118 c 0.44772,-3.63031 -0.68626,-1.92503 -0.23846,-5.55531 7.43038,-42.76783 14.56295,-129.81861 22.69016,-172.37653 m -26.35645,-262.3095 c 0.0792,13.00475 6.99598,23.50543 15.44905,23.45395 8.4531,-0.0515 15.24146,-10.63563 15.16225,-23.64038 -0.0792,-13.00472 -6.99597,-23.50543 -15.44907,-23.45395 -8.45307,0.0515 -15.24143,10.63566 -15.16223,23.64038 0,0 0,0 0,0 m 120.81538,-4.52774 c 0.0792,13.00474 6.99598,23.50543 15.44905,23.45394 8.4531,-0.0515 15.24146,-10.63563 15.16225,-23.64038 -0.0792,-13.00472 -6.99597,-23.50543 -15.44907,-23.45394 -8.45307,0.0515 -15.24143,10.63565 -15.16223,23.64038 0,0 0,0 0,0 m -56.3379,2.11475 c -6.52461,31.20431 -37.59641,51.10946 -69.40083,44.45937 -31.80439,-6.65008 -52.29772,-37.33715 -45.77311,-68.54147 6.52461,-31.20431 37.59643,-51.10946 69.40083,-44.45938 31.80442,6.65009 52.29772,37.33716 45.77311,68.54148 0,0 0,0 0,0 m 5.30161,1.26974 c 10.01023,30.26673 43.133,46.53184 73.98181,36.3291 30.84878,-10.20273 47.74179,-43.00973 37.73156,-73.27646 -10.01022,-30.26674 -43.13302,-46.53184 -73.9818,-36.32911 -30.84881,10.20274 -47.74179,43.00973 -37.73157,73.27647 0,0 0,0 0,0 m -51.36623,45.38506 c 6.26647,21.54146 78.05685,67.90365 100.42691,86.37794 10.39912,-26.89091 -6.23122,-69.08102 -8.43259,-91.86936 m 22.24308,1.0978 c 2.48229,3.41213 8.73511,34.88759 9.62682,73.50749 m -48.91902,144.48978 c -9.13493,5.81774 -19.86147,9.72988 -32.42454,11.17538 -77.80631,8.95236 -114.16165,-114.67993 -86.1615,-232.60224 M 502.9589,443.14577 c 4.0842,0.0268 7.6101,-2.28156 10.60812,-7.84515 C 540.02038,386.20972 426.1391,301.88604 403.52387,273.06094 M 271.4154,500.1811 C 205.00319,489.18804 159.58738,370.7845 218.95513,263.1619 m 52.46027,237.0192 c 0,0 0,0 0,0 m 2.71333,-330.8351 c -16.91008,-26.91396 -37.2663,-52.10485 -66.99085,-72.61157 0,0 94.18247,27.72522 94.18247,27.72522 0,0 -9.30026,-101.76427 -9.30026,-101.76427 0,0 45.19648,91.91847 45.19648,91.91847 0,0 86.8797,-40.51162 86.8797,-40.51162 -27.60197,28.4369 -44.48121,58.98686 -56.72554,90.44925" />
</svg>
