<!-- Created with Inkscape (http://www.inkscape.org/) --><svg xmlns:dc="http://purl.org/dc/elements/1.1/" xmlns:cc="http://creativecommons.org/ns#" xmlns:rdf="http://www.w3.org/1999/02/22-rdf-syntax-ns#" xmlns:svg="http://www.w3.org/2000/svg" xmlns="http://www.w3.org/2000/svg" xmlns:sodipodi="http://sodipodi.sourceforge.net/DTD/sodipodi-0.dtd" xmlns:inkscape="http://www.inkscape.org/namespaces/inkscape" inkscape:version="0.48.3.1 r9886" version="1.1" id="svg2" height="744.09448" width="1052.3622" sodipodi:docname="logo.svg">
  <sodipodi:namedview id="base" pagecolor="#ffffff" bordercolor="#666666" borderopacity="1.0" inkscape:pageopacity="0.0" inkscape:pageshadow="2" inkscape:zoom="0.4061262" inkscape:cx="213.20688" inkscape:cy="575.16034" inkscape:document-units="px" inkscape:current-layer="svg2" showgrid="false" inkscape:window-width="1366" inkscape:window-height="748" inkscape:window-x="0" inkscape:window-y="272" inkscape:window-maximized="1"/>
  <defs id="defs4"/>
  <metadata id="metadata7">
    <rdf:RDF>
      <cc:Work rdf:about="">
        <dc:format>image/svg+xml</dc:format>
        <dc:type rdf:resource="http://purl.org/dc/dcmitype/StillImage"/>
        <dc:title/>
      </cc:Work>
    </rdf:RDF>
  </metadata>
  <path inkscape:connector-curvature="0" d="M693.95954 475.14435C704.5539 481.29491 709.85111 491.1357 709.85119 504.66676C709.85111 515.57724 705.9682 524.82972 698.20246 532.42424C690.43655 540.01878 680.99929 543.81605 669.8906 543.81605C661.61044 543.81605 654.1532 542.07787 647.51885 538.6015C639.85585 534.53683 634.68722 528.7607 632.01292 521.27311C631.60147 520.15 631.39576 518.94666 631.39576 517.66303C631.39576 514.66805 632.55291 512.1811 634.86723 510.20222C637.02725 508.38383 639.49587 507.47463 642.27305 507.47461C645.51308 507.47463 648.11026 508.81171 650.06459 511.4858C653.35606 516.08533 655.25893 518.599 655.77326 519.02686C658.96182 521.701 663.66761 523.03808 669.8906 523.03805C674.77632 523.03808 679.04498 521.51381 682.6965 518.46527C686.39934 515.41678 688.2508 511.75324 688.25087 507.47461C688.2508 494.15749 679.63638 486.61642 662.40763 484.85144C654.84748 484.10275 651.06745 480.81357 651.06747 474.98389C651.06745 470.54491 653.9989 467.30921 659.86189 465.2768C665.41621 463.9933 670.94487 462.68297 676.44785 461.34582C679.94498 460.22278 682.56786 458.75199 684.31654 456.93352C686.06507 455.1152 686.96509 452.94916 687.01657 450.43536C687.22219 442.46656 681.23071 438.4821 669.04202 438.482C665.03049 438.4821 660.63327 440.08658 655.85041 443.29545C651.06745 446.451 647.80166 448.02875 646.05309 448.02865C643.12161 448.02875 640.62731 446.93236 638.57014 444.73947C636.51295 442.54677 635.48436 440.05985 635.48436 437.27866C635.48436 432.73272 639.80444 428.21347 648.44458 423.7208C656.15895 419.7097 662.43331 417.70412 667.26771 417.704C678.94212 417.70412 688.32795 420.32478 695.42528 425.56594C703.19101 431.34219 707.07393 439.57851 707.074 450.27493C707.07393 456.15811 705.9682 461.18548 703.75681 465.35701C701.59671 469.47528 698.33093 472.73771 693.95954 475.14435" style="opacity:1;font-size:72.56230927px;-inkscape-font-specification:Comic Sans MS Bold;font-family:Comic Sans MS;letter-spacing:0px;font-style:normal;word-spacing:0px;stroke:#000000;font-stretch:normal;stroke-miterlimit:4;stroke-width:5px;font-variant:normal;stroke-dasharray:none;font-weight:bold;line-height:125%;fill:none" id="path3002" color="#00000000"/>
  <path inkscape:connector-curvature="0" d="M766.93774 543.25446C749.9146 543.25446 737.57157 535.60646 729.90862 520.31044C724.25139 508.97215 721.42279 494.34465 721.42279 476.42795C721.42279 461.13197 725.15141 447.70785 732.60868 436.15552C741.55734 422.30363 753.79752 415.37764 769.32921 415.37752C784.03793 415.37764 795.45524 421.55487 803.58113 433.90922C810.42114 444.33843 813.84119 456.9336 813.84129 471.69473C813.84119 495.54802 809.93257 513.43792 802.11539 525.36453C794.29807 537.29119 782.57219 543.25446 766.93774 543.25446M769.25206 436.23575C760.92046 436.23582 754.23465 440.54119 749.19461 449.15179C744.77166 456.63945 742.56022 465.33038 742.56024 475.22456C742.56022 488.2744 743.74307 498.32911 746.10886 505.38877C749.9146 516.78061 756.85757 522.47648 766.93774 522.47646C775.37208 522.47648 781.69791 518.49205 785.91517 510.5231C790.13229 502.50077 792.2409 490.4939 792.24097 474.50257C792.2409 461.7203 790.31232 452.14692 786.45518 445.78237C782.64934 439.41805 776.91497 436.23582 769.25206 436.23575" style="opacity:1;font-size:72.56230927px;-inkscape-font-specification:Comic Sans MS Bold;font-family:Comic Sans MS;letter-spacing:0px;font-style:normal;word-spacing:0px;stroke:#000000;font-stretch:normal;stroke-miterlimit:4;stroke-width:5px;font-variant:normal;stroke-dasharray:none;font-weight:bold;line-height:125%;fill:none" id="path3004" color="#00000000"/>
  <path inkscape:connector-curvature="0" d="M863.52202 543.25446C846.49888 543.25446 834.15585 535.60646 826.49289 520.31044C820.83567 508.97215 818.00707 494.34465 818.00707 476.42795C818.00707 461.13197 821.73569 447.70785 829.19295 436.15552C838.14162 422.30363 850.38177 415.37764 865.91347 415.37752C880.62221 415.37764 892.03952 421.55487 900.16541 433.90922C907.00542 444.33843 910.42547 456.9336 910.42554 471.69473C910.42547 495.54802 906.51685 513.43792 898.69967 525.36453C890.88235 537.29119 879.15647 543.25446 863.52202 543.25446M865.83632 436.23575C857.50474 436.23582 850.81893 440.54119 845.77889 449.15179C841.35594 456.63945 839.1445 465.33038 839.14452 475.22456C839.1445 488.2744 840.32735 498.32911 842.69314 505.38877C846.49888 516.78061 853.44184 522.47648 863.52202 522.47646C871.95636 522.47648 878.28218 518.49205 882.49945 510.5231C886.71657 502.50077 888.82518 490.4939 888.82525 474.50257C888.82518 461.7203 886.89657 452.14692 883.03946 445.78237C879.23362 439.41805 873.49925 436.23582 865.83632 436.23575" style="opacity:1;font-size:72.56230927px;-inkscape-font-specification:Comic Sans MS Bold;font-family:Comic Sans MS;letter-spacing:0px;font-style:normal;word-spacing:0px;stroke:#000000;font-stretch:normal;stroke-miterlimit:4;stroke-width:5px;font-variant:normal;stroke-dasharray:none;font-weight:bold;line-height:125%;fill:none" id="path3006" color="#00000000"/>
  <path inkscape:connector-curvature="0" d="M960.1063 543.25446C943.08316 543.25446 930.74012 535.60646 923.07717 520.31044C917.41994 508.97215 914.59134 494.34465 914.59134 476.42795C914.59134 461.13197 918.31997 447.70785 925.77723 436.15552C934.7259 422.30363 946.96608 415.37764 962.49777 415.37752C977.20649 415.37764 988.6238 421.55487 996.74971 433.90922C1003.5897 444.33843 1007.0097 456.9336 1007.0098 471.69473C1007.0097 495.54802 1003.1011 513.43792 995.28395 525.36453C987.46662 537.29119 975.74075 543.25446 960.1063 543.25446M962.42062 436.23575C954.08904 436.23582 947.40321 440.54119 942.36317 449.15179C937.94024 456.63945 935.72877 465.33038 935.7288 475.22456C935.72877 488.2744 936.91165 498.32911 939.27741 505.38877C943.08316 516.78061 950.02612 522.47648 960.1063 522.47646C968.54066 522.47648 974.86646 518.49205 979.08373 510.5231C983.30085 502.50077 985.40946 490.4939 985.40953 474.50257C985.40946 461.7203 983.48088 452.14692 979.62374 445.78237C975.8179 439.41805 970.08352 436.23582 962.42062 436.23575" style="opacity:1;font-size:72.56230927px;-inkscape-font-specification:Comic Sans MS Bold;font-family:Comic Sans MS;letter-spacing:0px;font-style:normal;word-spacing:0px;stroke:#000000;font-stretch:normal;stroke-miterlimit:4;stroke-width:5px;font-variant:normal;stroke-dasharray:none;font-weight:bold;line-height:125%;fill:none" id="path3008" color="#00000000"/>
  <path inkscape:connector-curvature="0" style="stroke-linejoin:round;opacity:1;font-size:96.6412735px;-inkscape-font-specification:Impact Bold;stroke-opacity:1;stroke-linecap:round;letter-spacing:0px;font-style:normal;word-spacing:0px;stroke:#000000;font-stretch:normal;stroke-miterlimit:4;stroke-width:5px;font-family:Impact;font-variant:normal;stroke-dasharray:none;font-weight:bold;line-height:125%;fill:none" d="M231.26352 233.28734C231.26352 233.28734 235.21915 447.86721 235.21915 447.86721C235.21915 447.86721 188.79256 454.15813 188.79256 454.15813C188.79256 454.15813 184.59106 306.69942 184.59106 306.69942C184.59106 306.69942 169.36436 456.79071 169.36436 456.79071C169.36436 456.79071 133.53643 461.6455 133.53643 461.6455C133.53643 461.6455 104.53427 312.95938 104.53427 312.95938C104.53427 312.95938 111.40848 464.64391 111.40848 464.64391C111.40848 464.64391 56.134457 472.1337 56.134457 472.1337C56.134457 472.1337 42.216293 229.59275 42.216293 229.59275C42.216293 229.59275 127.46552 231.2588 127.46552 231.2588C130.39745 245.75262 133.54768 262.65904 136.90696 281.90935C136.90696 281.90935 147.40412 340.5806 147.40412 340.5806C147.40412 340.5806 157.19311 231.83977 157.19311 231.83977C157.19311 231.83977 231.26352 233.28734 231.26352 233.28734" id="path3818-stroke" color="#00000000"/>
  <path inkscape:connector-curvature="0" style="stroke-linejoin:round;opacity:1;font-size:96.6412735px;-inkscape-font-specification:Impact Bold;stroke-opacity:1;stroke-linecap:round;letter-spacing:0px;font-style:normal;word-spacing:0px;stroke:#000000;font-stretch:normal;stroke-miterlimit:4;stroke-width:5px;font-family:Impact;font-variant:normal;stroke-dasharray:none;font-weight:bold;line-height:125%;fill:none" d="M295.14253 338.87378C295.14253 338.87378 250.43909 341.52417 250.43909 341.52417C250.43909 341.52417 250.26625 329.84684 250.26625 329.84684C250.06573 316.30486 251.3429 305.78425 254.09651 298.34919C256.9272 290.83219 262.63883 284.16092 271.1673 278.37382C279.60812 272.64656 290.47262 269.7578 303.62741 269.66495C319.05819 269.55648 330.4443 272.5619 337.97437 278.61405C345.39809 284.49777 349.78628 291.77146 351.21092 300.45819C352.62745 309.01175 353.24088 326.64908 353.05898 353.18416C353.05898 353.18416 352.51865 431.97277 352.51865 431.97277C352.51865 431.97277 311.02066 437.59589 311.02066 437.59589C311.02066 437.59589 310.99126 423.3929 310.99126 423.3929C308.30249 429.44895 304.79715 434.21431 300.46123 437.69532C296.1758 441.10411 290.99806 443.23204 284.90337 444.0713C276.84249 445.18131 269.31463 443.78385 262.3288 439.83233C255.33386 435.73785 251.67872 425.22467 251.4272 408.23845C251.4272 408.23845 251.2211 394.32971 251.2211 394.32971C251.03224 381.58217 252.79751 372.70289 256.50759 367.75713C260.20446 362.82912 269.37736 356.75356 283.82798 349.62008C298.98821 342.05493 306.97497 337.16746 308.01436 334.84576C309.05297 332.52581 309.56395 327.8869 309.54776 320.91265C309.52836 312.14515 308.91443 306.45841 307.70654 303.87096C306.5701 301.18884 304.64172 299.88567 301.91534 299.96741C298.7964 300.06131 296.85488 301.27662 296.10181 303.61347C295.34802 305.86543 294.99661 311.7371 295.04751 321.19995C295.04751 321.19995 295.14241 338.87378 295.14241 338.87378M309.64035 360.7161C302.44014 367.16908 298.22506 372.46095 297.04113 376.55072C295.93224 380.63433 295.39784 386.40363 295.43787 393.84085C295.48347 402.32359 295.99968 407.72976 296.98496 410.07792C298.04221 412.41166 300.05806 413.40351 303.0246 413.05928C305.83033 412.73387 307.6304 411.59206 308.43351 409.63367C309.3093 407.58687 309.73762 402.50292 309.71871 394.35979C309.71871 394.35979 309.64051 360.7161 309.64051 360.7161" id="path3820-stroke" color="#00000000"/>
  <path inkscape:connector-curvature="0" style="stroke-linejoin:round;opacity:1;font-size:96.6412735px;-inkscape-font-specification:Impact Bold;stroke-opacity:1;stroke-linecap:round;letter-spacing:0px;font-style:normal;word-spacing:0px;stroke:#000000;font-stretch:normal;stroke-miterlimit:4;stroke-width:5px;font-family:Impact;font-variant:normal;stroke-dasharray:none;font-weight:bold;line-height:125%;fill:none" d="M429.87034 271.58431C429.87034 271.58431 429.09485 305.73011 429.09485 305.73011C429.09485 305.73011 399.31983 395.65424 399.31983 395.65424C399.31983 395.65424 427.1226 392.5704 427.1226 392.5704C427.1226 392.5704 426.45526 421.95416 426.45526 421.95416C426.45526 421.95416 360.5445 430.88522 360.5445 430.88522C360.5445 430.88522 360.82229 398.51928 360.82229 398.51928C360.82229 398.51928 392.44782 303.79852 392.44782 303.79852C392.44782 303.79852 364.82911 304.77596 364.82911 304.77596C364.82911 304.77596 365.13059 272.19325 365.13059 272.19325C365.13059 272.19325 429.87034 271.58431 429.87034 271.58431" id="path3822-stroke" color="#00000000"/>
  <path inkscape:connector-curvature="0" style="stroke-linejoin:round;opacity:1;font-size:96.6412735px;-inkscape-font-specification:Impact Bold;stroke-opacity:1;stroke-linecap:round;letter-spacing:0px;font-style:normal;word-spacing:0px;stroke:#000000;font-stretch:normal;stroke-miterlimit:4;stroke-width:5px;font-family:Impact;font-variant:normal;stroke-dasharray:none;font-weight:bold;line-height:125%;fill:none" d="M468.81159 328.57718C468.81159 328.57718 435.21883 330.56883 435.21883 330.56883C435.21883 330.56883 435.46292 320.44855 435.46292 320.44855C435.74575 308.72063 437.03394 299.62121 439.32476 293.19833C441.67606 286.70379 446.15263 280.94563 452.71206 275.95258C459.21309 271.00429 467.45443 268.51118 477.35014 268.44133C488.99139 268.35943 497.51045 270.98497 503.03263 276.2669C508.48934 281.41146 511.60507 287.77105 512.4268 295.36331C513.24695 302.84488 513.18233 318.27609 512.24303 341.5146C512.24303 341.5146 509.44587 410.70865 509.44587 410.70865C509.44587 410.70865 477.72561 415.00687 477.72561 415.00687C477.72561 415.00687 478.14466 402.55909 478.14466 402.55909C475.92188 407.82523 473.12239 411.94697 469.73673 414.92897C466.39383 417.84642 462.42046 419.62641 457.80073 420.26256C451.69899 421.10278 446.08682 419.76036 440.97148 416.20014C435.86223 412.5209 433.46447 403.30659 433.8212 388.51705C433.8212 388.51705 434.11304 376.41764 434.11304 376.41764C434.38027 365.33687 435.98314 357.64183 438.9139 353.38157C441.83559 349.13459 448.89637 343.93457 459.96478 337.84772C471.60929 331.37451 477.78426 327.17128 478.64066 325.1546C479.4965 323.13926 480.02573 319.09972 480.22916 313.02352C480.48466 305.38831 480.19786 300.43552 479.36672 298.17917C478.59264 295.84161 477.17922 294.70139 475.12236 294.76305C472.77071 294.83395 471.27161 295.88322 470.63221 297.91126C469.99495 299.86548 469.54765 304.96778 469.29113 313.1966C469.29113 313.1966 468.81164 328.57718 468.81164 328.57718M479.06745 347.73277C473.43071 353.29935 470.08657 357.8763 469.06631 361.43296C468.10284 364.98492 467.51969 370.01457 467.31727 376.50839C467.08617 383.91832 467.30727 388.64889 467.97616 390.71419C468.70094 392.76857 470.19154 393.66298 472.4426 393.40175C474.57288 393.15458 475.96922 392.17949 476.63736 390.47622C477.36327 388.69635 477.84507 384.25313 478.08353 377.12972C478.08353 377.12972 479.06745 347.73277 479.06745 347.73277" id="path3824-stroke" color="#00000000"/>
  <path inkscape:connector-curvature="0" style="stroke-linejoin:round;opacity:1;font-size:96.6412735px;-inkscape-font-specification:Impact Bold;stroke-opacity:1;stroke-linecap:round;letter-spacing:0px;font-style:normal;word-spacing:0px;stroke:#000000;font-stretch:normal;stroke-miterlimit:4;stroke-width:5px;font-family:Impact;font-variant:normal;stroke-dasharray:none;font-weight:bold;line-height:125%;fill:none" d="M590.67785 270.07172C590.67785 270.07172 576.23094 323.70493 576.23094 323.70493C576.23094 323.70493 586.68528 400.24249 586.68528 400.24249C586.68528 400.24249 559.56954 403.91678 559.56954 403.91678C559.56954 403.91678 553.31734 347.39038 553.31734 347.39038C553.31734 347.39038 550.4784 405.14865 550.4784 405.14865C550.4784 405.14865 520.24682 409.24509 520.24682 409.24509C520.24682 409.24509 527.51714 239.07708 527.51714 239.07708C527.51714 239.07708 558.61125 239.68475 558.61125 239.68475C558.61125 239.68475 555.12629 310.58697 555.12629 310.58697C555.12629 310.58697 566.39503 270.30014 566.39503 270.30014C566.39503 270.30014 590.67785 270.07178 590.67785 270.07178" id="path3826-stroke" color="#00000000"/>
  <path inkscape:connector-curvature="0" style="stroke-linejoin:round;opacity:1;font-size:96.6412735px;-inkscape-font-specification:Impact Bold;stroke-opacity:1;stroke-linecap:round;letter-spacing:0px;font-style:normal;word-spacing:0px;stroke:#000000;font-stretch:normal;stroke-miterlimit:4;stroke-width:5px;font-family:Impact;font-variant:normal;stroke-dasharray:none;font-weight:bold;line-height:125%;fill:none" d="M654.4231 313.13555C654.4231 313.13555 652.32263 343.1409 652.32263 343.1409C651.55794 354.06371 650.63697 362.09393 649.55756 367.26667C648.48302 372.37553 646.60377 377.27822 643.91325 381.98787C641.2186 386.65125 637.89638 390.29978 633.9324 392.93624C629.98656 395.52419 625.49503 397.17028 620.43982 397.86638C614.73361 398.65216 609.90484 398.4229 605.97684 397.1636C602.01789 395.83041 598.9863 393.45176 596.89881 390.02095C594.84693 386.50003 593.47832 382.11473 592.80015 376.86461C592.12281 371.52821 592.09599 363.41315 592.72395 352.49871C592.72395 352.49871 594.63682 319.25338 594.63682 319.25338C595.33739 307.07812 596.80046 297.49158 599.02222 290.5442C601.24242 283.60187 604.8277 278.00009 609.75138 273.75916C614.63829 269.55017 620.63436 267.43224 627.6913 267.38237C633.53896 267.34137 638.40645 268.62617 642.31758 271.2181C646.23781 273.72171 649.13885 277.00935 651.03951 281.07973C652.92828 285.1251 654.10494 289.29146 654.57696 293.58648C655.08777 297.86555 655.03548 304.38621 654.42305 313.13555M629.90538 304.96079C630.3272 298.44542 630.35769 294.35624 629.99548 292.70459C629.63676 290.98621 628.68564 290.14907 627.13892 290.19541C625.58729 290.24201 624.49486 291.1452 623.86518 292.90487C623.23932 294.60079 622.71856 298.73828 622.30391 305.30332C622.30391 305.30332 618.6997 362.36536 618.6997 362.36536C618.32758 368.25643 618.34166 372.07405 618.7407 373.82685C619.14297 375.51423 620.0904 376.27019 621.58017 376.0973C623.10784 375.92009 624.15451 374.99866 624.72365 373.33294C625.33482 371.66294 625.81317 368.1588 626.15951 362.81096C626.15951 362.81096 629.90529 304.96079 629.90529 304.96079" id="path3828-stroke" color="#00000000"/>
  <path inkscape:connector-curvature="0" style="stroke-linejoin:round;opacity:1;font-size:96.6412735px;-inkscape-font-specification:Impact Bold;stroke-opacity:1;stroke-linecap:round;letter-spacing:0px;font-style:normal;word-spacing:0px;stroke:#000000;font-stretch:normal;stroke-miterlimit:4;stroke-width:5px;font-family:Impact;font-variant:normal;stroke-dasharray:none;font-weight:bold;line-height:125%;fill:none" d="M719.8385 242.83565C719.8385 242.83565 708.21018 383.77553 708.21018 383.77553C708.21018 383.77553 686.33878 386.73917 686.33878 386.73917C686.33878 386.73917 686.98675 378.42107 686.98675 378.42107C684.56659 382.17076 682.09382 385.07765 679.56592 387.1396C677.02693 389.21058 674.42914 390.43182 671.76972 390.79806C668.17481 391.29309 665.14176 390.2823 662.6785 387.74999C660.20258 385.14086 658.70494 381.94446 658.19712 378.16503C657.72707 374.36849 657.80696 368.05575 658.43963 359.2111C658.43963 359.2111 662.50484 302.38425 662.50484 302.38425C663.18191 292.91946 664.04311 286.17439 665.08646 282.17709C666.16969 278.17893 668.21061 274.66408 671.1989 271.64297C674.17798 268.57398 677.55823 267.03127 681.32705 267.00461C684.22037 266.98441 686.78458 267.7922 689.02328 269.42101C691.28694 271.04032 693.24817 273.47136 694.91003 276.70783C694.91003 276.70783 697.58252 242.4007 697.58252 242.4007C697.58252 242.4007 719.83845 242.83565 719.83845 242.83565M693.15403 299.25043C693.49454 294.87884 693.48027 291.94824 693.11033 290.46271C692.77715 288.97374 691.91544 288.24921 690.52243 288.29091C689.16294 288.33191 688.18215 289.05521 687.58284 290.4613C687.02571 291.80651 686.56692 294.83587 686.20716 299.54203C686.20716 299.54203 681.76869 357.59854 681.76869 357.59854C681.40478 362.35837 681.39048 365.47163 681.72479 366.94378C682.063 368.35511 682.86881 368.98601 684.13996 368.83849C685.59373 368.67002 686.62365 367.74293 687.23304 366.05781C687.84666 364.31504 688.40536 360.20956 688.91034 353.72759C688.91034 353.72759 693.15404 299.25043 693.15404 299.25043" id="path3830-stroke" color="#00000000"/>
  <path inkscape:connector-curvature="0" style="stroke-linejoin:round;opacity:1;font-size:96.6412735px;-inkscape-font-specification:Impact Bold;stroke-opacity:1;stroke-linecap:round;letter-spacing:0px;font-style:normal;word-spacing:0px;stroke:#000000;font-stretch:normal;stroke-miterlimit:4;stroke-width:5px;font-family:Impact;font-variant:normal;stroke-dasharray:none;font-weight:bold;line-height:125%;fill:none" d="M746.18383 268.60904C746.18383 268.60904 744.06265 283.53106 744.06265 283.53106C747.9476 272.81279 752.68104 267.12755 758.21774 266.463C758.21774 266.463 754.64766 305.74594 754.64766 305.74594C751.02748 305.93602 748.27484 306.91668 746.40799 308.69111C744.535 310.47144 743.26221 312.89204 742.59433 315.94772C741.93163 318.94634 741.12272 325.84709 740.17072 336.61407C740.17072 336.61407 736.33765 379.96417 736.33765 379.96417C736.33765 379.96417 715.81194 382.74548 715.81194 382.74548C715.81194 382.74548 725.39495 268.80459 725.39495 268.80459C725.39495 268.80459 746.18383 268.60914 746.18383 268.60914" id="path3832-stroke" color="#00000000"/>
  <path inkscape:connector-curvature="0" style="stroke-linejoin:round;opacity:1;font-size:96.6412735px;-inkscape-font-specification:Impact Bold;stroke-opacity:1;stroke-linecap:round;letter-spacing:0px;font-style:normal;word-spacing:0px;stroke:#000000;font-stretch:normal;stroke-miterlimit:4;stroke-width:5px;font-family:Impact;font-variant:normal;stroke-dasharray:none;font-weight:bold;line-height:125%;fill:none" d="M800.71251 305.13538C800.71251 305.13538 798.14735 330.65566 798.14735 330.65566C797.2123 339.95793 796.26681 346.79592 795.30853 351.19506C794.35588 355.54016 792.83304 359.69683 790.7356 363.67455C788.63779 367.61085 786.12803 370.66786 783.19757 372.84742C780.28488 374.98363 777.02002 376.30462 773.39243 376.80414C769.30446 377.36707 765.88334 377.08219 763.14364 375.93917C760.38847 374.73437 758.33118 372.66077 756.98201 369.71377C755.6626 366.69383 754.85838 362.95589 754.57367 358.49966C754.2929 353.97336 754.57326 347.10985 755.41795 337.89445C755.41795 337.89445 757.98705 309.86591 757.98705 309.86591C758.92647 299.6167 760.30746 291.55713 762.12617 285.72277C763.94379 279.89202 766.67589 275.19085 770.30605 271.63364C773.91339 268.099 778.23606 266.32213 783.24585 266.28673C787.40566 266.25653 790.82739 267.34744 793.52577 269.54308C796.23773 271.66719 798.19673 274.45621 799.4141 277.90916C800.625 281.34419 801.32212 284.88232 801.50982 288.52915C801.72612 292.16451 801.45952 297.70302 800.71251 305.13538M783.47786 298.04021C784.01102 292.52998 784.17879 289.07176 783.98002 287.67365C783.78606 286.21954 783.13948 285.50817 782.03799 285.54118C780.93355 285.57468 780.12512 286.33274 779.61477 287.81627C779.10943 289.24592 778.59109 292.73858 778.06074 298.28433C778.06074 298.28433 773.4413 346.58732 773.4413 346.58732C772.96339 351.58444 772.83504 354.8276 773.05524 356.32298C773.28004 357.76325 773.92669 358.42059 774.99305 358.29683C776.08706 358.16987 776.86582 357.40242 777.33138 355.99431C777.82709 354.58314 778.2943 351.61017 778.73378 347.06851C778.73378 347.06851 783.47786 298.04021 783.47786 298.04021" id="path3834-stroke" color="#00000000"/>
  <path inkscape:connector-curvature="0" style="stroke-linejoin:round;opacity:1;font-size:96.6412735px;-inkscape-font-specification:Impact Bold;stroke-opacity:1;stroke-linecap:round;letter-spacing:0px;font-style:normal;word-spacing:0px;stroke:#000000;font-stretch:normal;stroke-miterlimit:4;stroke-width:5px;font-family:Impact;font-variant:normal;stroke-dasharray:none;font-weight:bold;line-height:125%;fill:none" d="M827.61606 267.84308C827.61606 267.84308 826.32795 277.33402 826.32795 277.33402C827.93633 273.53359 829.70122 270.69251 831.61927 268.8116C833.56299 266.8859 835.65451 265.9177 837.88953 265.90182C840.672 265.88162 842.79603 267.11513 844.27036 269.58972C845.73646 272.05089 846.50807 275.16599 846.59109 278.93711C846.67919 282.64738 846.24465 288.86239 845.29013 297.56618C845.29013 297.56618 837.76048 366.22106 837.76048 366.22106C837.76048 366.22106 821.72511 368.39391 821.72511 368.39391C821.72511 368.39391 829.08394 299.18139 829.08394 299.18139C829.82707 292.19167 830.15882 287.92571 830.07742 286.39741C829.99582 284.86729 829.39649 284.11829 828.27697 284.15184C827.09936 284.18754 826.26308 285.1115 825.77072 286.92439C825.28375 288.68595 824.63416 293.42483 823.82389 301.12235C823.82389 301.12235 816.67046 369.07884 816.67046 369.07884C816.67046 369.07884 799.74792 371.3719 799.74792 371.3719C799.74792 371.3719 810.26258 268.00631 810.26258 268.00631C810.26258 268.00631 827.61606 267.84311 827.61606 267.84311" id="path3836-stroke" color="#00000000"/>
</svg>