<!-- Created with Inkscape (http://www.inkscape.org/) --><svg xmlns:dc="http://purl.org/dc/elements/1.1/" xmlns:cc="http://creativecommons.org/ns#" xmlns:rdf="http://www.w3.org/1999/02/22-rdf-syntax-ns#" xmlns:svg="http://www.w3.org/2000/svg" xmlns="http://www.w3.org/2000/svg" xmlns:sodipodi="http://sodipodi.sourceforge.net/DTD/sodipodi-0.dtd" xmlns:inkscape="http://www.inkscape.org/namespaces/inkscape" id="svg2" version="1.1" inkscape:version="0.48.3.1 r9886" width="1052.3622" height="744.09448" sodipodi:docname="tmp4w64Sh.svg">
  <metadata id="metadata8">
    <rdf:RDF>
      <cc:Work rdf:about="">
        <dc:format>image/svg+xml</dc:format>
        <dc:type rdf:resource="http://purl.org/dc/dcmitype/StillImage"/>
        <dc:title/>
      </cc:Work>
    </rdf:RDF>
  </metadata>
  <defs id="defs6"/>
  <sodipodi:namedview pagecolor="#ffffff" bordercolor="#666666" borderopacity="1" objecttolerance="10" gridtolerance="10" guidetolerance="10" inkscape:pageopacity="0" inkscape:pageshadow="2" inkscape:window-width="1366" inkscape:window-height="748" id="namedview4" showgrid="false" inkscape:zoom="0.36286468" inkscape:cx="278.22513" inkscape:cy="327.24084" inkscape:window-x="0" inkscape:window-y="-3" inkscape:window-maximized="1" inkscape:current-layer="svg2"/>
  <path inkscape:connector-curvature="0" id="path3755" d="M516.16823 310.6813C516.16823 349.74174 484.42651 381.40647 445.27114 381.40647C406.11575 381.40647 374.37404 349.74174 374.37404 310.6813C374.37404 271.62086 406.11575 239.95613 445.27114 239.95613C484.16601 239.95613 515.79877 271.21637 516.1651 310.01521" style="opacity:1;stroke-opacity:1;stroke:#000000;stroke-miterlimit:4;stroke-width:5px;fill:none" color="#00000000"/>
  <path inkscape:connector-curvature="0" id="path3755-2" d="M659.52824 306.47024C659.52824 345.53067 627.78652 377.19541 588.63115 377.19541C549.47576 377.19541 517.73404 345.53067 517.73404 306.47024C517.73404 267.4098 549.47576 235.74507 588.63115 235.74507C627.52601 235.74507 659.15878 267.0053 659.5251 305.80414" style="opacity:1;stroke-opacity:1;stroke:#000000;stroke-miterlimit:4;stroke-width:5px;fill:none" color="#00000000"/>
  <path style="stroke-linejoin:miter;opacity:1;stroke-opacity:1;stroke:#000000;stroke-linecap:butt;stroke-dasharray:none;stroke-miterlimit:4;stroke-width:5px;fill:none" d="M371.76061 306.47024C377.82711 306.47024 374.09389 307.82568 380.16039 307.82568C453.69115 304.66179 590.48094 309.33929 664.35227 305.1148" id="path3786" inkscape:connector-curvature="0" sodipodi:nodetypes="ccc" color="#00000000"/>
  <path inkscape:connector-curvature="0" color="#00000000" id="path3788-stroke" d="M458.50883 308.50338C458.50883 318.76529 450.61975 327.08422 440.88809 327.08422C432.00612 327.08422 424.5126 320.11343 423.40493 310.82062C423.40493 310.82062 440.88809 308.50338 440.88809 308.50338C440.88809 308.50338 458.50883 308.50338 458.50883 308.50338" style="opacity:1;stroke-opacity:1;stroke:#000000;stroke-miterlimit:4;stroke-width:5px;fill:none"/>
  <path inkscape:connector-curvature="0" color="#00000000" id="path3788-0-stroke" d="M607.53853 310.73422C607.53853 320.99613 599.64945 329.31506 589.91779 329.31506C581.03582 329.31506 573.5423 322.34427 572.43463 313.05146C572.43463 313.05146 589.91779 310.73422 589.91779 310.73422C589.91779 310.73422 607.53853 310.73422 607.53853 310.73422" style="opacity:1;stroke-opacity:1;stroke:#000000;stroke-miterlimit:4;stroke-width:5px;fill:none"/>
  <path style="stroke-linejoin:miter;opacity:1;stroke-opacity:1;stroke:#000000;stroke-linecap:butt;stroke-dasharray:none;stroke-miterlimit:4;stroke-width:5px;fill:none" d="M467.28514 377.94399C461.26126 411.34473 486.20826 454.19083 520.14732 468.72613" id="path3811" inkscape:connector-curvature="0" sodipodi:nodetypes="cc" color="#00000000"/>
  <path style="stroke-linejoin:miter;opacity:1;stroke-opacity:1;stroke:#000000;stroke-linecap:butt;stroke-dasharray:none;stroke-miterlimit:4;stroke-width:5px;fill:none" d="M571.32699 376.51927C575.68327 410.43077 550.27308 454.62661 515.75393 469.73396" id="path3811-6" inkscape:connector-curvature="0" sodipodi:nodetypes="cc" color="#00000000"/>
  <path style="stroke-linejoin:miter;opacity:1;stroke-opacity:1;stroke:#000000;stroke-linecap:butt;stroke-dasharray:none;stroke-miterlimit:4;stroke-width:5px;fill:none" d="M434.78861 379.00253C413.88597 460.06464 390.59822 529.74638 507.1485 547.08466" id="path3811-1" inkscape:connector-curvature="0" sodipodi:nodetypes="cc" color="#00000000"/>
  <path style="stroke-linejoin:miter;opacity:1;stroke-opacity:1;stroke:#000000;stroke-linecap:butt;stroke-dasharray:none;stroke-miterlimit:4;stroke-width:5px;fill:none" d="M615.28379 377.64709C644.32916 474.28748 646.33422 571.62232 492.07491 543.48344" id="path3811-1-5" inkscape:connector-curvature="0" sodipodi:nodetypes="cc" color="#00000000"/>
  <path style="stroke-linejoin:miter;opacity:1;stroke-opacity:1;stroke:#000000;stroke-linecap:butt;stroke-dasharray:none;stroke-miterlimit:4;stroke-width:5px;fill:none" d="M485.37211 549.1888C484.66007 551.69854 486.40223 550.52404 485.69019 553.03376C474.01607 582.59012 462.46085 640.45713 449.72644 669.86492" id="path3786-5" inkscape:connector-curvature="0" sodipodi:nodetypes="ccc" color="#00000000"/>
  <path style="stroke-linejoin:miter;opacity:1;stroke-opacity:1;stroke:#000000;stroke-linecap:butt;stroke-dasharray:none;stroke-miterlimit:4;stroke-width:5px;fill:none" d="M591.22563 673.63809C590.5136 671.12836 592.25575 672.30285 591.54371 669.79314C579.86959 640.23677 568.31438 582.36976 555.57996 552.96198" id="path3786-5-4" inkscape:connector-curvature="0" sodipodi:nodetypes="ccc" color="#00000000"/>
  <path style="stroke-linejoin:miter;opacity:1;stroke-opacity:1;stroke:#000000;stroke-linecap:butt;stroke-dasharray:none;stroke-miterlimit:4;stroke-width:5px;fill:none" d="M449.37632 664.14116C448.66428 664.85016 450.40643 664.51836 449.6944 665.22736C438.02027 673.57701 426.46506 689.9244 413.73065 698.23207" id="path3786-5-7" inkscape:connector-curvature="0" sodipodi:nodetypes="ccc" color="#00000000"/>
  <path style="stroke-linejoin:miter;opacity:1;stroke-opacity:1;stroke:#000000;stroke-linecap:butt;stroke-dasharray:none;stroke-miterlimit:4;stroke-width:5px;fill:none" d="M469.26188 710.32525C468.95642 709.36798 470.34996 710.46489 470.0445 709.50763C463.52804 696.71944 460.80073 676.8871 453.32381 663.64783" id="path3786-5-7-6" inkscape:connector-curvature="0" sodipodi:nodetypes="ccc" color="#00000000"/>
  <path style="stroke-linejoin:miter;opacity:1;stroke-opacity:1;stroke:#000000;stroke-linecap:butt;stroke-dasharray:none;stroke-miterlimit:4;stroke-width:5px;fill:none" d="M451.15999 663.34769C450.92901 664.32561 452.23411 663.1248 452.00315 664.10273C446.48906 677.35402 445.29445 697.33734 438.85742 711.11223" id="path3786-5-7-5" inkscape:connector-curvature="0" sodipodi:nodetypes="ccc" color="#00000000"/>
  <path style="stroke-linejoin:miter;opacity:1;stroke-opacity:1;stroke:#000000;stroke-linecap:butt;stroke-dasharray:none;stroke-miterlimit:4;stroke-width:5px;fill:none" d="M590.66327 664.30407C591.17469 665.16902 589.57147 664.41078 590.08288 665.27575C599.28922 676.28689 606.37423 695.01021 616.61749 706.24669" id="path3786-5-7-6-6" inkscape:connector-curvature="0" sodipodi:nodetypes="ccc" color="#00000000"/>
  <path style="stroke-linejoin:miter;opacity:1;stroke-opacity:1;stroke:#000000;stroke-linecap:butt;stroke-dasharray:none;stroke-miterlimit:4;stroke-width:5px;fill:none" d="M588.78436 664.25138C588.79486 665.25613 589.77326 663.77652 589.78445 664.78129C587.62167 678.97016 591.27161 698.65361 588.33903 713.57283" id="path3786-5-7-5-9" inkscape:connector-curvature="0" sodipodi:nodetypes="ccc" color="#00000000"/>
  <path style="stroke-linejoin:miter;opacity:1;stroke-opacity:1;stroke:#000000;stroke-linecap:butt;stroke-dasharray:none;stroke-miterlimit:4;stroke-width:5px;fill:none" d="M586.36502 663.70114C585.96946 664.62483 587.46148 663.66614 587.06592 664.58982C579.35693 676.69658 574.74642 696.17742 566.03827 708.64141" id="path3786-5-7-6-6-3" inkscape:connector-curvature="0" sodipodi:nodetypes="ccc" color="#00000000"/>
  <path style="stroke-linejoin:miter;opacity:1;stroke-opacity:1;stroke:#000000;stroke-linecap:butt;stroke-dasharray:none;stroke-miterlimit:4;stroke-width:5px;fill:none" d="M402.4081 375.90833C360.17977 434.10644 336.58665 519.84853 440.2641 551.65799" id="path3811-1-7" inkscape:connector-curvature="0" sodipodi:nodetypes="cc" color="#00000000"/>
  <path style="stroke-linejoin:miter;opacity:1;stroke-opacity:1;stroke:#000000;stroke-linecap:butt;stroke-dasharray:none;stroke-miterlimit:4;stroke-width:5px;fill:none" d="M634.56174 369.19926C669.86264 417.76325 683.78053 438.1541 676.70031 474.48137C666.97342 524.38814 647.49433 550.72785 590.06477 555.70273" id="path3811-1-7-4" inkscape:connector-curvature="0" sodipodi:nodetypes="csc" color="#00000000"/>
  <path style="stroke-linejoin:miter;opacity:1;stroke-opacity:1;stroke:#000000;stroke-linecap:butt;stroke-dasharray:none;stroke-miterlimit:4;stroke-width:5px;fill:none" d="M521.85323 271.13647C521.96593 271.13647 514.96695 229.65723 528.24381 190.83253C541.50898 158.28359 569.43197 109.2437 608.14972 107.84816C619.60605 107.81906 628.56034 117.22441 628.59315 117.22441C629.19025 116.61296 633.70334 127.46829 623.2089 135.29522C593.86445 153.49103 546.25195 195.60363 536.882 228.03423C527.47335 262.25406 521.36662 273.43919 522.64601 271.6979" id="path3786-52" inkscape:connector-curvature="0" sodipodi:nodetypes="ccccccc" color="#00000000"/>
  <path inkscape:connector-curvature="0" color="#00000000" id="path3786-52-5-stroke" sodipodi:nodetypes="ccccccc" d="M518.17981 284.69086C518.06726 284.68686 524.07744 238.19854 512.1294 198.94455C499.97948 165.96306 473.74137 116.00141 435.09355 113.2892C423.64483 112.87035 414.37568 121.9655 414.34289 121.96438C413.76696 121.33297 408.88708 132.02844 419.10913 140.20793C447.81741 159.39174 493.96934 203.10011 502.23031 235.83076C510.46908 270.35093 517.15012 291.80103 515.93073 290.01721" style="stroke-linejoin:miter;opacity:1;stroke-opacity:1;stroke:#000000;stroke-linecap:butt;stroke-dasharray:none;stroke-miterlimit:4;stroke-width:5px;fill:none"/>
  <path style="stroke-linejoin:miter;opacity:1;stroke-opacity:1;stroke:#000000;stroke-linecap:butt;stroke-dasharray:none;stroke-miterlimit:4;stroke-width:5px;fill:none" d="M507.96668 184.31354C498.63292 139.6449 509.29825 70.592104 540.64818 53.383403C551.09502 48.681071 563.10825 53.612831 563.1382 53.599442C563.43375 52.797543 571.98431 60.865629 565.59818 72.294175C546.23542 100.88207 521.8736 159.71841 526.55572 193.14919" id="path3786-52-4" inkscape:connector-curvature="0" sodipodi:nodetypes="ccccc" color="#00000000"/>
</svg>